<svg width="43" height="43" viewBox="0 0 43 43" fill="none" xmlns="http://www.w3.org/2000/svg">
<path d="M21.5 0C9.64511 0 0 9.64511 0 21.5C0 33.3548 9.64511 42.9999 21.5 42.9999C33.3548 42.9999 42.9999 33.3548 42.9999 21.5C42.9999 9.64511 33.3549 0 21.5 0ZM21.5 41.1304C10.6752 41.1304 1.86953 32.3247 1.86953 21.5C1.86953 10.6752 10.6752 1.86953 21.5 1.86953C32.3247 1.86953 41.1304 10.6752 41.1304 21.5C41.1304 32.3247 32.3247 41.1304 21.5 41.1304Z" fill="#DFC49B"/>
<path d="M30.5751 29.253L22.4351 21.1129V6.54345C22.4351 6.02745 22.0162 5.60864 21.5002 5.60864C20.9842 5.60864 20.5654 6.02745 20.5654 6.54345V21.5C20.5654 21.7486 20.6645 21.9861 20.8384 22.1618L29.2515 30.5749C29.4347 30.7562 29.674 30.8478 29.9133 30.8478C30.1526 30.8478 30.3919 30.7563 30.5751 30.5749C30.9397 30.2102 30.9397 29.6176 30.5751 29.253Z" fill="#DFC49B"/>
</svg>
