<svg width="232" height="49" viewBox="0 0 232 49" fill="none" xmlns="http://www.w3.org/2000/svg">
<path fill-rule="evenodd" clip-rule="evenodd" d="M13.1321 29.1381L13.4777 29.2472L13.8232 29.3564L14.1688 29.4655L14.5144 29.5746L14.9751 29.6837L15.3207 29.7929L15.6663 29.902L16.1271 30.0111L16.5879 30.1203L17.0486 30.2294L17.6246 30.3386L18.3157 30.4478L19.0069 30.5568L19.9285 30.6659H24.1906L24.8818 30.5568L25.2273 30.4478L25.6881 30.3386L25.9186 30.2294L26.2641 30.1203L26.4945 30.0111L26.6097 29.902L26.8401 29.7929L27.0704 29.6837L27.1857 29.5746L27.3009 29.4655L27.5313 29.3564L27.6464 29.2472L27.7616 29.1381L27.8768 29.0289L27.9921 28.9198V31.3207V34.3764L27.8768 34.5948L27.7616 34.813L27.6464 34.922L27.5313 35.1404L27.416 35.2496L27.3009 35.3587L27.1857 35.4677L27.0704 35.5768L26.9553 35.686L26.8401 35.7952L26.6097 35.9043L26.4945 36.0134L26.2641 36.1225L26.0337 36.2317L25.8033 36.3409L25.573 36.45L25.3425 36.5591L24.9969 36.6682L24.6513 36.7773L24.3058 36.8865L23.9602 36.9956L23.3843 37.1047L22.6932 37.2139H19.8133L19.0069 37.1047L18.2006 36.9956L17.6246 36.8865L17.279 36.7773L16.703 36.6682L16.3575 36.5591L16.0119 36.45L15.6663 36.3409L15.436 36.2317L15.0904 36.1225L14.86 36.0134L14.6295 35.9043L14.3992 35.7952L14.2839 35.686L14.0536 35.5768L13.8232 35.4677L13.708 35.3587L13.5928 35.2496H13.3624V34.4856L13.2472 31.9755L13.1321 29.1381ZM13.1321 29.1381L12.9977 29.1199L13.1321 29.0289V29.1381ZM25.1122 12.8775L25.2273 13.0958L25.3425 15.0601L25.4578 19.4254L25.573 19.9711L25.6881 20.4076L25.8033 20.7351H26.0337L26.1489 20.5167L26.2641 19.9711V18.2249L26.1489 14.9509L26.0529 13.1867L26.1489 13.314L26.3793 13.4231L26.4945 13.5323L26.6097 13.6414L26.7248 13.8596L26.8401 14.0779L26.9553 15.0601L27.0704 17.0245L27.1857 18.6614L27.3009 19.9711L27.416 21.4988L27.5313 23.0267L27.6464 24.5546L27.7616 27.2828V28.0468L27.6464 28.156L27.416 28.2651L27.1857 28.3741L27.0704 28.4833L26.8401 28.5924L26.6097 28.7016L26.3793 28.8108L26.1489 28.9198L25.9186 29.0289L25.573 29.1381L25.3425 29.2472L24.8818 29.3564L24.4211 29.4655L23.7299 29.5746L22.6932 29.6837H19.2373L18.2006 29.5746L17.6246 29.4655L17.0486 29.3564L16.4727 29.2472L16.1271 29.1381L15.6663 29.0289L15.2056 28.9198L14.86 28.8108L14.5144 28.7016L14.1688 28.5924L13.8232 28.4833L13.4777 28.3741L13.2472 28.2651H13.0169V24.5546L12.9015 19.4254L12.7865 14.8419L12.6713 14.7327H13.0169L13.3624 14.6236L13.708 14.5144L14.0536 14.4053L14.3992 14.2962L14.6295 14.1871L14.9751 14.0779L15.2056 13.9688L15.5512 13.8596L15.8967 13.7506L16.1271 13.6414L16.4727 13.5323L16.8182 13.4231L17.1638 13.314L17.5094 13.2049L17.9702 13.0958L18.431 12.9866L18.7765 12.8775L19.4677 12.7683L20.2741 12.6592L23.7299 12.5501V17.5701L23.8451 18.1158L23.9602 18.4432L24.0755 18.5523H24.3058L24.4211 18.3341V13.7506L24.3067 12.7552L25.1122 12.8775ZM28.2225 6.65697L27.7616 6.76614L27.416 6.87532L27.1857 6.98442L26.7248 7.0936L26.4945 7.20267L26.2641 7.31174L25.9186 7.42091L25.8033 7.53009L25.4578 7.63919L25.3425 7.74836L25.1122 7.85743L24.8818 7.96654L24.7666 8.07571L24.5362 8.18489L24.4211 8.29396L24.1906 8.40313L23.9602 8.51224L23.8451 8.62131V8.83966H24.0755L24.4211 8.73048L24.8818 8.62131L25.2273 8.51224L25.6881 8.40313L26.1489 8.29396L26.6097 8.18489L27.1857 8.07571L27.6464 7.96654L28.1071 7.85743L28.7984 7.74836L29.3744 7.63919L30.1807 7.53009L31.3327 7.42091H33.4062L34.3277 7.53009L35.0188 7.63919L35.3644 7.74836L35.8252 7.85743L36.0556 7.96654L36.286 8.07571L36.6315 8.18489L36.862 8.29396L36.9771 8.40313L37.2076 8.51224L37.4379 8.62131L37.5532 8.73048L37.6683 8.83966L37.7835 8.94876L38.014 9.05794L38.129 9.16701L38.2442 9.27618L38.3595 9.38536L38.4747 9.49453L38.5898 9.71271L38.705 9.82178L38.8202 9.93095L38.9354 10.1493L39.0506 10.2583L39.1658 10.4766L39.281 10.6949L39.3962 10.9131L39.5113 11.1315L39.6266 11.3497L39.7418 11.677L39.8569 12.0045L39.9722 12.3318L40.0874 12.7683V14.7327L39.9722 15.1693L39.8569 15.6057L39.7418 15.8241L39.6266 16.0423L39.5113 16.2606L39.3962 16.4788L39.281 16.6971L39.1658 16.8062L39.0506 17.0245L38.9354 17.1336L38.8202 17.2427L38.705 17.3519L38.5898 17.5701L38.4747 17.6793L38.3595 17.7884L38.2442 17.8975L38.129 18.0067L38.014 18.1158L37.8987 18.2249L37.7835 18.3341L37.6683 18.4432L37.4379 18.5523L37.3227 18.6614L37.2076 18.7706L37.0923 18.8797L36.862 18.9889L36.7467 19.098L36.5164 19.2071L36.4011 19.3163L36.1708 19.4254L36.0556 19.5345L35.8252 19.6437L35.5949 19.7528L35.4797 19.8619L35.2492 19.9711L35.0188 20.0803L34.7885 20.1893L34.558 20.2985L34.3277 20.4076L34.0972 20.5167L33.8669 20.6259L33.5213 20.7351L33.2909 20.8441L33.0606 20.9532L32.715 21.0624L32.3694 21.1715L32.0238 21.2806L31.6784 21.3898L31.3327 21.4988L30.9871 21.608L30.4111 21.7172L29.9503 21.8263L29.0288 21.9355L28.6832 22.0446V21.608L28.568 20.1893L28.4528 18.3341L28.3376 16.6971L28.2225 14.8419L28.1071 14.2962L27.9921 13.9688L27.8768 13.6414L27.7616 13.4231L27.6464 13.314L27.5313 13.2049L27.416 13.0958L27.3009 12.9866L27.1857 12.8775L27.0704 12.7683L26.8401 12.6592L26.7248 12.5501L26.4945 12.441L26.3793 12.3318L26.1489 12.2227L25.9186 12.1136L25.6881 12.0045L25.3425 11.8953L25.1122 11.7862L24.5362 11.677L24.0755 11.5679L23.1539 11.4587H21.3108L20.1589 11.5679L19.4677 11.677L18.6613 11.7862L18.2006 11.8953L17.6246 12.0045L17.1638 12.1136L16.8182 12.2227L16.3575 12.3318L16.0119 12.441L15.5512 12.5501L15.3207 12.6592L14.9751 12.7683L14.6295 12.8775L14.3992 12.9866L14.0536 13.0958L13.8232 13.2049L13.5928 13.314L13.2472 13.4231L13.0169 13.5323L12.9015 13.6414L12.6713 13.7506L12.4408 13.8596L12.3257 13.9688L12.0953 14.0779L11.9801 14.1871L11.8649 14.2962L11.7497 14.4053L11.6346 14.5144L11.5193 14.6236L11.4041 14.8419L11.289 14.9509V15.9331L11.4041 16.2606L11.5193 17.3519L11.6346 21.608L11.7497 24.2272H11.4041L10.8281 24.3363L10.0219 24.4455L9.33064 24.5546H7.48761L7.02679 24.4455L6.56609 24.3363L6.22042 24.2272L5.87482 24.118L5.52925 24.009L5.29886 23.8998L4.9533 23.7906L4.72294 23.6815L4.49249 23.5724L4.26213 23.4633L4.03178 23.3542L3.91653 23.245L3.68618 23.1358L3.57086 23.0267L3.34061 22.9176L3.22537 22.8085L3.11016 22.6994L2.99501 22.5902L2.76466 22.481L2.64934 22.372L2.5342 22.1537L2.41906 22.0446L2.30385 21.9355L2.18864 21.8263L2.0735 21.608L1.95828 21.4988L1.84304 21.2806L1.7279 21.0624L1.61268 20.8441L1.49747 20.5167L1.38233 20.0803L1.26708 19.2071V18.7706L1.38233 17.8975L1.49747 17.4611L1.61268 17.1336L1.7279 16.8062L1.84304 16.588L1.95828 16.3698L2.0735 16.1514L2.18864 15.9331L2.30385 15.8241L2.41906 15.6057L2.5342 15.4966L2.64934 15.3875L2.76466 15.2784L2.8798 15.1693L2.99501 15.0601L3.11016 14.9509L3.22537 14.8419L3.34061 14.7327L3.45583 14.6236L3.68618 14.5144L3.80139 14.4053L4.03178 14.2962L4.14699 14.1871L4.37734 14.0779L4.6077 13.9688L4.9533 13.8596L5.29886 13.7506L5.75967 13.6414H6.91158L7.48761 13.7506L7.94831 13.8596L8.40912 13.9688H8.86994V13.8596L8.75472 13.7506L8.63948 13.6414L8.52427 13.5323L8.40912 13.4231L8.29391 13.314L8.06356 13.2049L7.94831 13.0958L7.71796 12.9866L7.60275 12.8775L7.37236 12.7683L7.25715 12.6592L7.142 12.5501L7.02679 12.441L6.91158 12.2227L6.79644 12.0045L6.68119 11.677L6.56609 10.8039V10.6949L6.68119 9.60353L6.79644 9.05794L6.91158 8.62131L7.02679 8.18489L7.142 7.85743L7.25715 7.53009L7.37236 7.20267L7.48761 6.98442L7.60275 6.76614L7.71796 6.5479L7.83317 6.32962L7.94831 6.11137L8.06356 6.0022L8.17877 5.78392L8.29391 5.56578L8.40912 5.4566L8.52427 5.34743L8.63948 5.12915L8.75472 5.01998L8.86994 4.91097L8.98497 4.8018L9.10029 4.58345L9.2155 4.47438L9.33064 4.36521L9.44578 4.2561L9.5611 4.14703L9.67624 4.03786L9.79138 3.92868L10.0219 3.81958L10.1369 3.7104L10.2523 3.60133L10.3674 3.49216L10.5979 3.38298L10.713 3.27391L10.9434 3.16481L11.0586 3.05563L11.289 2.94656L11.4041 2.83739L11.6346 2.72821L11.8649 2.61911L12.0953 2.51004L12.3257 2.40087L12.556 2.29176L12.7865 2.18259L13.1321 2.07341L13.4777 1.96434L13.708 1.85524L14.1688 1.74606L14.5144 1.63689L14.9751 1.52782L15.5512 1.41864L16.1271 1.30957L17.3942 1.20047H19.9285L21.1956 1.30957L21.7715 1.41864L22.4627 1.52782L22.9235 1.63689L23.3843 1.74606L23.8451 1.85524L24.1906 1.96434L24.6513 2.07341L24.9969 2.18259L25.2273 2.29176L25.573 2.40087L25.8033 2.51004L26.1489 2.61911L26.3793 2.72821L26.6097 2.83739L26.8401 2.94656L26.9553 3.05563L27.1857 3.16481L27.3009 3.27391L27.5313 3.38298L27.6464 3.49216L27.7616 3.60133L27.8768 3.7104L27.9921 3.81958L28.1071 3.92868L28.2225 4.03786L28.3376 4.14703L28.4528 4.36521L28.568 4.58345L28.6832 4.8018L28.7984 5.01998L28.9136 5.4566L29.0288 6.5479H28.568L28.2225 6.65697ZM16.2423 0.10907L15.436 0.218175L14.86 0.32735L14.2839 0.43642L13.9384 0.545594L13.5928 0.654769L13.1321 0.763874L12.7865 0.872944L12.556 0.982118L12.2104 1.09129L11.9801 1.20047L11.7497 1.30957L11.5193 1.41864L11.289 1.52782L11.0586 1.63689L10.8281 1.74606L10.5979 1.85524L10.4826 1.96434L10.2523 2.07341L10.1369 2.18259L9.90667 2.29176L9.79138 2.40087L9.5611 2.51004L9.44578 2.61911L9.33064 2.72821L9.2155 2.83739L9.10029 2.94656L8.86994 3.05563L8.75472 3.16481L8.63948 3.27391L8.52427 3.38298L8.40912 3.49216L8.29391 3.60133L8.17877 3.7104L8.06356 3.81958L7.94831 4.03786L7.83317 4.14703L7.71796 4.2561L7.60275 4.36521L7.48761 4.58345L7.37236 4.69263L7.25715 4.8018L7.142 5.01998L7.02679 5.12915L6.91158 5.34743L6.79644 5.56578L6.68119 5.78392L6.56609 6.0022L6.45084 6.22055L6.33563 6.43879L6.22042 6.65697L6.10535 6.98442L5.98996 7.31174L5.87482 7.63919L5.75967 7.96654L5.64446 8.62131L5.52925 9.27618V12.0045L5.64446 12.5501H5.06844L4.72294 12.6592L4.49249 12.7683L4.14699 12.8775L3.91653 12.9866L3.68618 13.0958L3.45583 13.2049L3.34061 13.314L3.11016 13.4231L2.99501 13.5323L2.8798 13.6414L2.64934 13.7506L2.5342 13.8596L2.41906 13.9688L2.30385 14.0779L2.18864 14.1871L2.0735 14.2962L1.95828 14.4053L1.84304 14.5144L1.7279 14.6236L1.61268 14.7327L1.49747 14.8419L1.38233 14.9509L1.26708 15.1693L1.15198 15.2784L1.03673 15.4966L0.921518 15.6057L0.806307 15.8241L0.691235 16.0423L0.575918 16.2606L0.460707 16.4788L0.345565 16.6971L0.230424 17.0245L0.115036 17.3519L0 17.7884V20.1893L0.115036 20.6259L0.230424 20.9532L0.345565 21.1715L0.460707 21.4988L0.575918 21.7172L0.691235 21.8263L0.806307 22.0446L0.921518 22.2629L1.03673 22.372L1.15198 22.481L1.26708 22.6994L1.38233 22.8085L1.49747 22.9176L1.61268 23.0267L1.7279 23.1358L1.84304 23.245L1.95828 23.3542L2.0735 23.4633L2.18864 23.5724L2.30385 23.6815L2.5342 23.7906L2.64934 23.8998L2.76466 24.009L2.99501 24.118L3.11016 24.2272L3.34061 24.3363L3.57086 24.4455L3.68618 24.5546L3.91653 24.6638L4.14699 24.7728L4.37734 24.882L4.72294 24.9911L4.9533 25.1003L5.29886 25.2094L5.64446 25.3186L5.98996 25.4276L6.45084 25.5368L6.91158 25.6459L7.94831 25.755H9.10029L10.1369 25.6459L10.5979 25.5368L11.289 25.4276L11.8841 25.3367L11.7497 25.4276V25.6459L11.8649 29.1381L11.9801 32.0846L12.0953 32.5212H11.8649L10.8281 32.6303L9.79138 32.7395L8.86994 32.8486L7.71796 32.9577L6.79644 33.0669L6.22042 33.176L6.10535 33.6125V34.3764H6.45084L7.60275 34.2673L8.75472 34.1582L9.67624 34.0491L10.9434 33.9399L11.8649 33.8307L12.0953 33.7217V34.813L12.2104 36.0134L12.4408 36.1225L12.7865 36.2317L13.0169 36.3409L13.2472 36.45L13.5928 36.5591L13.8232 36.6682L14.1688 36.7773L14.3992 36.8865L14.6295 36.9956L14.9751 37.1047L15.2056 37.2139L15.5512 37.323L15.8967 37.4322L16.1271 37.5413L16.4727 37.6503L16.8182 37.7595L17.279 37.8687L17.6246 37.9778L17.9702 38.0869L18.5462 38.196L19.0069 38.3051L19.698 38.4143L20.85 38.5235H22.002L23.0388 38.4143L23.7299 38.3051L24.1906 38.196L24.6513 38.0869L24.9969 37.9778L25.2273 37.8687L25.573 37.7595L25.8033 37.6503L26.0337 37.5413L26.2641 37.4322L26.4945 37.323L26.7248 37.2139L26.8401 37.1047L27.0704 36.9956L27.1857 36.8865L27.416 36.7773L27.5313 36.6682L27.6464 36.5591L27.7616 36.45L27.8768 36.3409L27.9921 36.2317L28.1071 36.1225L28.2225 36.0134L28.3376 35.9043L28.4528 35.7952L28.568 35.686L28.6832 35.5768L28.7984 35.3587L28.9136 35.2496L29.0288 35.0312L29.144 34.7039V32.0846V31.2115L29.3744 31.1025L29.72 30.9934L29.9503 30.8842L30.2959 30.7751L30.6414 30.6659L30.8719 30.5568L31.1022 30.4478L31.4478 30.3386L31.6784 30.2294L32.0238 30.1203L32.2542 30.0111L32.4846 29.902L32.8301 29.7929L33.0606 29.6837L33.2909 29.5746L33.5213 29.4655L33.7517 29.3564L33.9821 29.2472L34.2125 29.1381L34.4429 29.0289L34.558 28.9198L34.7885 28.8108L35.0188 28.7016L35.2492 28.5924L35.3644 28.4833L35.5949 28.3741L35.7099 28.2651L35.9404 28.156L36.0556 28.0468L36.286 27.9377L36.4011 27.8285L36.5164 27.7194L36.7467 27.6103L36.862 27.5012L36.9771 27.392L37.0923 27.2828L37.2076 27.1738L37.4379 27.0646L37.5532 26.9555L37.6683 26.8463L37.7835 26.7371L37.8987 26.628L38.014 26.519L38.129 26.4098L38.2442 26.3007L38.3595 26.1916L38.4747 26.0824L38.5898 25.9732L38.705 25.8642L38.8202 25.755L38.9354 25.6459L39.0506 25.5368L39.1658 25.4276L39.281 25.3186L39.3962 25.2094L39.5113 25.1003L39.6266 24.9911L39.7418 24.882L39.8569 24.7728L39.9722 24.6638L40.0874 24.5546L40.2025 24.4455L40.3178 24.3363L40.4329 24.2272L40.5481 24.118L40.6633 23.8998L40.7785 23.7906L40.8936 23.6815L41.009 23.5724L41.1241 23.4633L41.2393 23.3542L41.3545 23.245L41.4697 23.1358L41.5848 23.0267L41.7001 22.8085L41.8153 22.6994L41.9305 22.5902L42.0457 22.481L42.1609 22.372L42.276 22.1537L42.3913 22.0446L42.5065 21.9355L42.6216 21.8263L42.7368 21.7172L42.8521 21.4988L42.9672 21.3898L43.0824 21.2806L43.1976 21.0624L43.3128 20.9532L43.4279 20.8441L43.5431 20.7351L43.6583 20.5167L43.7736 20.4076L43.8887 20.2985L44.0039 20.0803L44.1191 19.9711L44.2343 19.8619L44.3494 19.6437L44.4648 19.5345L44.5799 19.4254L44.6951 19.2071L44.8103 19.098L44.9256 18.9889L45.0407 18.7706L45.1559 18.6614L45.2711 18.5523L45.3864 18.4432L45.5015 18.3341L45.6166 18.2249L45.7319 18.0067L45.8471 17.8975L45.9622 17.7884L46.0774 17.6793L46.1926 17.5701L46.3078 17.3519L46.423 17.2427L46.5382 17.1336L46.6534 17.0245L46.7686 16.9154L46.8837 16.8062L46.999 16.588L47.1142 16.4788L47.2294 16.3698L47.3444 16.2606L47.4598 16.1514L47.575 15.9331L47.6901 15.8241L47.8053 15.7149L47.9206 15.6057L48.0357 15.4966L48.1509 15.3875L48.2662 15.1693L48.3813 15.0601L48.4965 14.9509L48.6117 14.8419L48.7269 14.7327L48.842 14.6236L48.9573 14.5144L49.0724 14.4053L49.3028 14.2962L49.418 14.1871L49.5332 14.0779L49.6485 13.9688L49.7635 13.8596L49.8788 13.7506L50.1092 13.6414L50.2244 13.5323L50.3397 13.4231L50.4548 13.314L50.6852 13.2049L50.8005 13.0958L51.0307 12.9866L51.1459 12.8775L51.2612 12.7683L51.4915 12.6592L51.6067 12.5501L51.8371 12.441L51.9522 12.3318L52.0675 12.2227L52.2978 12.1136L52.4131 12.0045L52.6434 11.8953L52.7587 11.7862L52.989 11.677L53.1042 11.5679L53.3346 11.4587L53.4498 11.3497L53.6801 11.2405L53.7955 11.1315L54.0257 11.0223L54.2562 10.9131L54.3713 10.8039L54.6018 10.6949L54.8322 10.5858L54.9474 10.4766L55.1777 10.3675L55.4081 10.2583L55.5233 10.1493L55.7537 10.0401L55.9841 9.93095L56.2144 9.82178L56.4448 9.71271L56.6752 9.60353L56.9057 9.49453L57.1359 9.38536L57.3664 9.27618L57.5968 9.16701L57.8272 9.05794L58.1728 8.94876L58.4031 8.83966L58.7487 8.73048L59.0943 8.62131L59.3247 8.51224L59.6704 8.40313L60.1311 8.29396L60.4766 8.18489L61.0526 8.07571L61.6286 7.96654L62.435 7.85743H65.1996L66.0059 7.96654L66.582 8.07571L67.1579 8.18489L67.6187 8.29396L68.0794 8.40313L68.425 8.51224L68.7706 8.62131L69.1162 8.73048L69.4618 8.83966L69.8073 8.94876L70.0377 9.05794L70.3833 9.16701L70.7289 9.27618L70.9592 9.38536L71.1896 9.49453L71.5352 9.60353L71.7656 9.71271L71.9961 9.82178L72.2264 9.93095L72.4569 10.0401L72.6872 10.1493L72.9176 10.2583L73.2631 10.3675L73.3783 10.4766L73.6087 10.5858L73.9543 10.6949L74.0695 10.8039L74.2999 10.9131L74.5303 11.0223L74.7607 11.1315L74.991 11.2405L75.2215 11.3497L75.4519 11.4587L75.6822 11.5679L75.7974 11.677L76.0278 11.7862L76.2582 11.8953L76.4886 12.0045L76.7189 12.1136L76.9494 12.2227L77.1798 12.3318L77.4101 12.441L77.6405 12.5501L77.8708 12.6592L78.1013 12.7683H78.3316V12.5501L78.2165 12.441L78.1013 12.3318L77.9861 12.2227L77.8708 12.1136L77.6405 12.0045L77.5253 11.8953L77.4101 11.7862L77.1798 11.677L76.9494 11.5679L76.7189 11.4587L76.4886 11.3497L76.2582 11.2405L76.0278 11.1315L75.7974 11.0223L75.6822 10.9131L75.4519 10.8039L75.2215 10.6949L74.991 10.5858L74.7607 10.4766L74.6455 10.3675L74.4151 10.2583L74.1847 10.1493L73.9543 10.0401L73.7239 9.93095L73.4935 9.82178L73.2631 9.71271L73.0327 9.60353L72.8024 9.49453L72.572 9.38536L72.3416 9.27618L72.1112 9.16701L71.8808 9.05794L71.6504 8.94876L71.42 8.83966L71.0745 8.73048L70.844 8.62131L70.6137 8.51224L70.2682 8.40313L69.9226 8.29396L69.6922 8.18489L69.2314 8.07571L69.0011 7.96654L68.5402 7.85743L68.0794 7.74836L67.7339 7.63919L67.1579 7.53009L66.582 7.42091L65.8907 7.31174L64.7389 7.20267H63.1261L61.9742 7.31174L61.3982 7.42091L60.8222 7.53009L60.3615 7.63919L59.9007 7.74836L59.5551 7.85743L59.0943 7.96654L58.8639 8.07571L58.4031 8.18489L58.1728 8.29396L57.8272 8.40313L57.5968 8.51224L57.3664 8.62131L57.0208 8.73048L56.7904 8.83966L56.5601 8.94876L56.2144 9.05794L55.9841 9.16701L55.7537 9.27618L55.5233 9.38536L55.293 9.49453L55.0625 9.60353L54.9474 9.71271L54.717 9.82178L54.4866 9.93095L54.2562 10.0401L54.0257 10.1493L53.9106 10.2583L53.6801 10.3675L53.4498 10.4766L53.3346 10.5858L53.1042 10.6949L52.989 10.8039L52.7587 10.9131L52.6434 11.0223L52.4131 11.1315L52.2978 11.2405L52.0675 11.3497L51.9522 11.4587L51.7219 11.5679L51.6067 11.677L51.3763 11.7862L51.2612 11.8953L51.1459 12.0045L50.9155 12.1136L50.8005 12.2227L50.6852 12.3318L50.5699 12.441L50.3397 12.5501L50.2244 12.6592L50.1092 12.7683L49.9941 12.8775L49.7635 12.9866L49.6485 13.0958L49.5332 13.2049L49.418 13.314L49.3028 13.4231L49.1876 13.5323L49.0724 13.6414L48.9573 13.7506L48.7269 13.8596L48.6117 13.9688L48.4965 14.0779L48.3813 14.1871L48.2662 14.2962L48.1509 14.5144L48.0357 14.6236L47.9206 14.7327L47.8053 14.8419L47.6901 14.9509L47.575 15.0601L47.4598 15.1693L47.3444 15.2784L47.2294 15.3875L47.1142 15.4966L46.999 15.6057L46.8837 15.7149L46.7686 15.8241L46.6534 15.9331L46.5382 16.0423L46.423 16.1514L46.3078 16.2606L46.1926 16.3698L46.0774 16.588L45.9622 16.6971L45.8471 16.8062L45.7319 17.0245L45.6166 17.1336L45.5015 17.2427L45.3864 17.3519L45.2711 17.5701L45.1559 17.6793L45.0407 17.7884L44.9256 17.8975L44.8103 18.1158L44.6951 18.2249L44.5799 18.3341L44.4648 18.4432L44.3494 18.5523L44.2343 18.7706L44.1191 18.8797L44.0039 18.9889L43.8887 19.098L43.7736 19.3163L43.6583 19.4254L43.5431 19.5345L43.4279 19.6437L43.3128 19.7528L43.1976 19.8619L43.0824 20.0803L42.9672 20.1893L42.8521 20.2985L42.7368 20.4076L42.6216 20.5167L42.5065 20.6259L42.3913 20.8441L42.276 20.9532L42.1609 21.0624L42.0457 21.1715L41.9305 21.2806L41.8153 21.3898L41.7001 21.4988L41.5848 21.608L41.4697 21.7172L41.3545 21.8263L41.2393 21.9355L41.1241 22.0446L41.009 22.1537L40.8936 22.372L40.7785 22.481L40.6633 22.5902L40.5481 22.6994L40.4329 22.8085L40.3178 22.9176L40.2025 23.0267L40.0874 23.1358L39.9722 23.245L39.8569 23.3542L39.7418 23.4633L39.6266 23.5724L39.5113 23.6815L39.3962 23.7906L39.281 23.8998L39.1658 24.009L39.0506 24.118L38.9354 24.2272L38.8202 24.3363L38.705 24.5546L38.5898 24.6638L38.4747 24.7728L38.3595 24.882L38.2442 24.9911L38.129 25.1003L38.014 25.2094L37.8987 25.3186L37.6683 25.4276L37.5532 25.5368L37.4379 25.6459L37.3227 25.755L37.2076 25.8642L37.0923 25.9732L36.9771 26.0824L36.862 26.1916L36.7467 26.3007L36.5164 26.4098L36.4011 26.519L36.286 26.628L36.1708 26.7371L35.9404 26.8463L35.8252 26.9555L35.5949 27.0646L35.4797 27.1738L35.2492 27.2828L35.0188 27.392L34.9036 27.5012L34.6733 27.6103L34.4429 27.7194L34.2125 27.8285L34.0972 27.9377L33.8669 28.0468L33.6365 28.156L33.4062 28.2651L33.1757 28.3741L32.9454 28.4833L32.715 28.5924L32.4846 28.7016L32.1391 28.8108L31.9086 28.9198L31.6784 29.0289L31.3327 29.1381L31.1022 29.2472L30.7566 29.3564L30.5263 29.4655L30.1807 29.5746L29.8351 29.6837L29.4895 29.7929L29.0288 29.902V28.7016L28.9136 25.8642L28.7984 23.245H29.144L29.72 23.1358L30.1807 23.0267L30.7566 22.9176L31.1022 22.8085L31.5629 22.6994L31.9086 22.5902L32.2542 22.481L32.5998 22.372L32.9454 22.2629L33.2909 22.1537L33.5213 22.0446L33.7517 21.9355L34.0972 21.8263L34.3277 21.7172L34.558 21.608L34.9036 21.4988L35.0188 21.3898L35.3644 21.2806L35.4797 21.1715L35.7099 21.0624L35.9404 20.9532L36.1708 20.8441L36.4011 20.7351L36.5164 20.6259L36.7467 20.5167L36.862 20.4076L37.0923 20.2985L37.2076 20.1893L37.4379 20.0803L37.5532 19.9711L37.6683 19.8619L37.8987 19.7528L38.014 19.6437L38.129 19.5345L38.3595 19.4254L38.4747 19.3163L38.5898 19.2071L38.705 19.098L38.8202 18.9889L38.9354 18.8797L39.0506 18.7706L39.1658 18.6614L39.281 18.5523L39.3962 18.4432L39.5113 18.3341L39.6266 18.2249L39.7418 18.1158L39.8569 18.0067L39.9722 17.8975L40.0874 17.6793L40.2025 17.5701L40.3178 17.4611L40.4329 17.2427L40.5481 17.0245L40.6633 16.9154L40.7785 16.6971L40.8936 16.4788L41.009 16.2606L41.1241 15.9331L41.2393 15.7149L41.3545 15.2784L41.4697 14.6236V13.4231L41.3545 12.6592L41.2393 12.1136L41.1241 11.677L41.009 11.3497L40.8936 11.0223L40.7785 10.8039L40.6633 10.5858L40.5481 10.3675L40.4329 10.1493L40.3178 9.93095L40.2025 9.82178L40.0874 9.60353L39.9722 9.49453L39.8569 9.38536L39.7418 9.16701L39.6266 9.05794L39.5113 8.94876L39.3962 8.83966L39.281 8.73048L39.1658 8.62131L39.0506 8.51224L38.9354 8.40313L38.8202 8.29396L38.705 8.18489L38.5898 8.07571L38.4747 7.96654L38.2442 7.85743L38.129 7.74836L38.014 7.63919L37.7835 7.53009L37.5532 7.42091L37.4379 7.31174L37.2076 7.20267L36.9771 7.0936L36.6315 6.98442L36.4011 6.87532L36.1708 6.76614L35.7099 6.65697L35.3644 6.5479L34.9036 6.43879L34.3277 6.32962L33.5213 6.22055H30.6414L30.1807 6.32962V5.56578L30.0656 5.12915L29.9503 4.69263L29.8351 4.36521L29.72 4.14703L29.6047 3.92868L29.4895 3.7104L29.3744 3.60133L29.2591 3.38298L29.144 3.27391L29.0288 3.16481L28.9136 3.05563L28.7984 2.94656L28.6832 2.83739L28.568 2.72821L28.4528 2.61911L28.3376 2.51004L28.2225 2.40087L27.9921 2.29176L27.8768 2.18259L27.6464 2.07341L27.5313 1.96434L27.3009 1.85524L27.0704 1.74606L26.8401 1.63689L26.6097 1.52782L26.2641 1.41864L26.0337 1.30957L25.6881 1.20047L25.4578 1.09129L25.1122 0.982118L24.7666 0.872944L24.4211 0.763874L23.9602 0.654769L23.6146 0.545594L23.1539 0.43642L22.578 0.32735L22.1171 0.218175L21.3108 0.10907L20.3892 0H17.279L16.2423 0.10907Z" fill="#FF3030"/>
<path fill-rule="evenodd" clip-rule="evenodd" d="M167.49 16.8062L167.509 16.6789L167.605 16.8062H167.49ZM146.986 13.6414L147.101 13.7505L147.216 13.8596L147.331 13.9688L147.446 14.0779L147.561 14.1871L147.677 14.4053L147.792 14.6236V15.6057L147.677 16.2606L147.561 16.5879L147.446 17.0245L147.331 17.3519L147.216 17.7884L147.101 18.0067L146.986 18.3341L146.87 18.6614L146.755 18.9889L146.64 19.3163L146.525 19.6436L146.41 19.9711L146.294 20.2984L146.179 20.6259L146.064 20.9532L145.949 21.2806L145.834 21.4988L145.718 21.8263L145.603 22.1537L145.488 22.481L145.373 22.8085L145.258 23.1358L145.143 23.4633L145.027 23.7906L144.912 24.118L144.797 24.4454L144.682 24.6638L144.567 25.1002L144.451 25.3186L144.336 25.6458L144.221 25.9732L144.106 26.3007L143.991 26.628L143.875 26.9555L143.76 27.2828L143.645 27.6103L143.53 27.9376L143.415 28.2651L143.299 28.5924L143.184 28.8108L143.069 29.2472L142.954 29.4655L142.839 29.7929L142.724 30.1203L142.608 30.4477L142.493 30.7751L142.378 31.1025L142.263 31.4299L142.147 31.7573L142.032 31.9755L141.917 32.3029L141.802 32.6303L141.687 32.9577L141.572 33.176L141.456 33.3943L141.341 33.7217L141.226 33.9399L141.111 34.1582L140.996 34.3764L140.88 34.5948L140.765 34.7038L140.65 34.813L140.535 34.922L140.42 35.0312L140.304 35.1404L140.074 35.2495L139.959 35.3587L139.383 35.4677V35.686H145.143V35.4677L144.912 35.3587L144.797 35.2495L144.682 35.1404L144.567 35.0312L144.451 34.7038V33.8307L144.567 33.176L144.682 32.7394L144.797 32.4121L144.912 31.9755L145.027 31.7573L145.143 31.3207L145.258 30.9933L145.373 30.6659L145.488 30.3386L145.603 30.0111L145.718 29.6837L145.834 29.3564L145.949 29.0289L146.064 28.5924L146.179 28.3741L146.294 27.9376L146.41 27.6103L146.525 27.2828L146.64 26.9555L146.755 26.628L146.87 26.3007L146.986 25.9732L147.101 25.6458L147.216 25.3186L147.331 24.9911L147.446 24.5546L147.561 24.2272L147.677 23.8998L147.792 23.5724L147.907 23.245L148.022 22.9176L148.138 22.5902L148.253 22.2629L148.368 21.8263L148.483 21.608L148.598 21.1715L148.714 20.844L148.829 20.5167L148.944 20.1893L149.059 19.8619L149.174 19.5345L149.289 19.2071L149.405 18.8797L149.52 18.4432L149.635 18.1158L149.75 17.7884L149.865 17.4611L149.981 17.1336L150.032 16.7899L150.096 17.0245L150.211 17.5701L150.326 18.1158L150.441 18.6614L150.557 19.2071L150.672 19.6436L150.787 20.2984L150.902 20.735L151.017 21.3898L151.133 21.8263L151.248 22.372L151.363 23.0267L151.478 23.4633L151.593 24.118L151.709 24.5546L151.824 25.1002L151.939 25.6458L152.054 26.1915L152.169 26.7371L152.285 27.2828L152.4 27.8285L152.515 28.3741L152.63 28.9198L152.745 29.4655L152.86 30.0111L152.976 30.4477L153.091 31.1025L153.206 31.539L153.321 32.1938L153.436 32.6303L153.552 33.0669L153.667 33.3943L153.782 33.7217L153.897 33.9399L154.012 34.1582L154.128 34.3764L154.243 34.5948L154.358 34.7038L154.473 34.922L154.588 35.0312L154.704 35.1404L154.819 35.2495L154.934 35.4677L155.049 35.5768L155.164 35.686L155.28 35.7951L155.395 35.9043H155.74L155.855 35.686L155.971 35.4677L156.086 35.2495L156.201 35.1404L156.316 34.922L156.431 34.7038L156.547 34.5948L156.662 34.3764L156.777 34.1582L156.892 34.0491L157.008 33.8307L157.123 33.6125L157.238 33.3943L157.353 33.2851L157.468 33.0669L157.583 32.8486L157.699 32.7394L157.814 32.5212L157.929 32.3029L158.044 32.1938L158.159 31.9755L158.275 31.7573L158.39 31.539L158.505 31.4299L158.62 31.2115L158.735 30.9933L158.851 30.7751L158.966 30.6659L159.081 30.4477L159.196 30.2294L159.311 30.1203L159.426 29.9019L159.542 29.6837L159.657 29.5746L159.772 29.3564L159.887 29.1381L160.003 28.9198L160.118 28.8108L160.233 28.5924L160.348 28.3741L160.463 28.2651L160.578 28.0468L160.694 27.8285L160.809 27.6103L160.924 27.5012L161.039 27.2828L161.154 27.0646L161.27 26.9555L161.385 26.7371L161.5 26.519L161.615 26.4098L161.73 26.1915L161.846 25.9732L161.961 25.755L162.076 25.6458L162.191 25.4276L162.306 25.2094L162.421 25.1002L162.537 24.882L162.652 24.6638L162.767 24.4454L162.882 24.3363L162.998 24.118L163.113 23.8998L163.228 23.7906L163.343 23.5724L163.458 23.3542L163.573 23.245L163.689 23.0267L163.804 22.8085L163.919 22.5902L164.034 22.481L164.149 22.2629L164.265 22.0446L164.38 21.9354L164.495 21.7172L164.61 21.4988L164.725 21.3898L164.841 21.1715L164.956 20.9532L165.071 20.735L165.186 20.6259L165.301 20.4076L165.417 20.1893L165.532 20.0803L165.647 19.8619L165.762 19.6436L165.877 19.5345L165.993 19.3163L166.108 19.0979L166.223 18.8797L166.338 18.7706L166.453 18.5522L166.568 18.3341L166.684 18.1158L166.799 18.0067L166.914 17.7884L167.029 17.5701L167.145 17.4611L167.26 17.2427L167.375 17.0245L167.49 16.8062L167.375 17.7884L167.26 18.7706L167.145 20.1893L167.029 21.1715L166.914 22.372L166.799 23.6815L166.684 24.6638L166.568 25.9732L166.453 27.0646L166.338 28.2651L166.223 29.4655L166.108 30.5567L165.993 31.8664L165.877 32.6303L165.762 33.2851L165.647 33.7217L165.532 34.1582L165.417 34.4856L165.301 34.7038L165.186 34.813V35.0312H164.956L164.841 35.1404L164.725 35.2495L164.495 35.3587L164.034 35.4677V35.686H170.6V35.4677L170.14 35.3587L170.024 35.2495L169.909 35.1404L169.794 34.922L169.679 34.813L169.564 34.4856L169.448 34.0491V31.9755L169.564 30.3386L169.679 29.0289L169.794 27.392L169.909 26.0824L170.024 24.7728L170.14 23.1358L170.255 21.8263L170.37 20.1893L170.485 18.8797L170.6 17.5701L170.715 16.2606L170.831 15.6057L170.946 15.0601L171.061 14.7327L171.176 14.5144L171.291 14.2961L171.407 14.1871L171.637 14.0779L171.752 13.9688L171.983 13.8596L172.328 13.7505L172.559 13.6414V13.4231H166.568L166.453 13.5323L166.338 13.7505L166.223 14.0779L166.108 14.2961L165.993 14.5144L165.877 14.7327L165.762 15.0601L165.647 15.1693L165.532 15.3874L165.417 15.6057L165.301 15.8241L165.186 16.0422L165.071 16.2606L164.956 16.3698L164.841 16.5879L164.725 16.8062L164.61 17.0245L164.495 17.1336L164.38 17.3519L164.265 17.5701L164.149 17.7884L164.034 17.8975L163.919 18.1158L163.804 18.3341L163.689 18.4432L163.573 18.6614L163.458 18.8797L163.343 19.0979L163.228 19.2071L163.113 19.4254L162.998 19.6436L162.882 19.8619L162.767 19.9711L162.652 20.1893L162.537 20.4076L162.421 20.5167L162.306 20.735L162.191 20.9532L162.076 21.1715L161.961 21.2806L161.846 21.4988L161.73 21.7172L161.615 21.8263L161.5 22.0446L161.385 22.2629L161.27 22.481L161.154 22.5902L161.039 22.8085L160.924 23.0267L160.809 23.245L160.694 23.3542L160.578 23.5724L160.463 23.7906L160.348 23.8998L160.233 24.118L160.118 24.3363L160.003 24.5546L159.887 24.6638L159.772 24.882L159.657 25.1002L159.542 25.2094L159.426 25.4276L159.311 25.6458L159.196 25.8642L159.081 25.9732L158.966 26.1915L158.851 26.4098L158.735 26.519L158.62 26.7371L158.505 26.9555L158.39 27.1738L158.275 27.2828L158.159 27.5012L158.044 27.7194L157.929 27.9376L157.814 28.0468L157.699 28.2651L157.583 28.4833L157.468 28.5924L157.353 28.8108L157.238 29.0289L157.123 29.2472L157.008 29.3564L156.892 29.5746L156.777 29.7929L156.662 29.9019L156.547 30.1203L156.431 30.3386L156.316 30.4477L156.201 30.0111L156.086 29.3564L155.971 28.9198L155.855 28.3741L155.74 27.8285L155.625 27.392L155.51 26.8463L155.395 26.3007L155.28 25.8642L155.164 25.3186L155.049 24.7728L154.934 24.2272L154.819 23.7906L154.704 23.245L154.588 22.6994L154.473 22.2629L154.358 21.7172L154.243 21.1715L154.128 20.735L154.012 20.1893L153.897 19.7527L153.782 19.0979L153.667 18.6614L153.552 18.2249L153.436 17.5701L153.321 17.1336L153.206 16.5879L153.091 16.1514L152.976 15.7149L152.86 15.0601L152.745 14.2961L152.63 13.4231H146.986V13.6414Z" fill="#FF3030"/>
<path fill-rule="evenodd" clip-rule="evenodd" d="M179.24 19.971L179.009 20.0802L178.779 20.1892L178.318 20.2983L177.973 20.4075L177.166 20.5166H175.323H174.978V20.7349L175.208 20.8439L175.323 20.9531L175.554 21.0623L175.669 21.1714L175.784 21.3897L175.899 21.7171V22.4809L175.784 23.0266L175.669 23.4631L175.554 24.0088L175.438 24.5545L175.323 25.1001L175.208 25.6457L175.093 26.0823L174.978 26.737L174.862 27.2827L174.747 27.8284L174.632 28.374L174.517 28.8106L174.402 29.4654L174.286 29.9018L174.171 30.4476L174.056 30.9932L173.941 31.5389L173.826 32.412V32.6302L173.941 33.5033L174.056 33.7216L174.171 33.9398L174.286 34.158L174.402 34.3763L174.517 34.4855L174.632 34.5947L174.747 34.7037L174.862 34.8128L174.978 34.9219L175.208 35.0311L175.323 35.1403L175.554 35.2494L175.784 35.3585L176.014 35.4676L176.36 35.5767L176.936 35.6859H179.009L179.701 35.5767L180.046 35.4676L180.507 35.3585L180.737 35.2494L181.083 35.1403L181.313 35.0311L181.544 34.9219L181.774 34.8128L182.004 34.7037L182.235 34.5947L182.35 34.4855L182.58 34.3763L182.696 34.2671L182.926 34.158L183.041 34.049L183.156 33.9398L183.387 33.8306L183.502 33.7216L183.617 33.6124L183.732 33.5033L183.848 33.3942L183.963 33.285L184.078 33.1759V33.285L183.963 33.8306L183.848 34.3763L183.732 34.9219L183.617 35.2494L183.502 35.6859L183.387 36.1224L183.272 36.4498L183.156 36.7772L183.041 37.1046L182.926 37.3229L182.811 37.6502L182.696 37.8686L182.58 38.0868L182.465 38.305L182.35 38.4142L182.235 38.6324L182.12 38.8507L182.004 38.9598L181.889 39.0689L181.774 39.1781V39.3964H181.544L181.429 39.5055L181.313 39.6145L181.198 39.7237L181.083 39.8329L180.852 39.942L180.622 40.0512L180.392 40.1602L180.161 40.2694L179.816 40.3786L179.24 40.4876H177.742L177.282 40.3786L176.821 40.2694L176.59 40.1602L176.475 40.0512L176.245 39.942L176.13 39.8329L176.014 39.7237L175.899 39.5055L175.784 39.2872V38.4142L175.899 38.305L176.014 38.1959L176.13 38.0868L176.36 37.9777V37.7594L176.13 37.6502L175.784 37.5411L175.208 37.4321H174.171L173.711 37.5411L173.48 37.6502L173.25 37.7594L173.134 37.8686L173.019 37.9777L172.904 38.0868L172.789 38.1959L172.674 38.305L172.559 38.5234L172.443 38.7416L172.328 39.1781V39.942L172.443 40.3786L172.559 40.7059L172.674 40.815L172.789 41.0334L172.904 41.1424L173.019 41.2515L173.134 41.3607L173.25 41.4699L173.365 41.579L173.48 41.6882L173.711 41.7972L173.826 41.9063L174.056 42.0155L174.171 42.1247L174.402 42.2338L174.747 42.3429L174.978 42.452L175.323 42.5612L175.784 42.6704L176.36 42.7795L177.742 42.8886H178.433L179.701 42.7795L180.277 42.6704L180.737 42.5612L181.083 42.452L181.429 42.3429L181.659 42.2338L181.889 42.1247L182.12 42.0155L182.58 41.9063L184.078 41.7972H187.188L188.801 41.9063L190.183 42.0155L190.99 42.1247L191.796 42.2338L192.602 42.3429L193.178 42.452L193.869 42.5612L194.445 42.6704L194.906 42.7795L195.482 42.8886L195.943 42.9977L196.519 43.1068L196.98 43.216L197.556 43.3252L198.016 43.4342L198.362 43.5433L198.823 43.6525L199.283 43.7616L199.629 43.8707L200.205 43.9799L200.551 44.089L201.127 44.1981L201.472 44.3073L201.933 44.4164L202.394 44.5256L202.854 44.6347L203.315 44.7438L203.776 44.8529L204.237 44.9621L204.813 45.0711L205.389 45.1803L206.195 45.2895L207.002 45.3986L208.269 45.5077H211.84L213.107 45.3986L213.913 45.2895L214.719 45.1803L215.295 45.0711L215.871 44.9621L216.332 44.8529L216.793 44.7438L217.138 44.6347L217.484 44.5256L217.945 44.4164L218.175 44.3073L218.521 44.1981L218.751 44.089L219.097 43.9799L219.327 43.8707L219.558 43.7616L219.788 43.6525L220.018 43.5433L220.249 43.4342L220.364 43.3252L220.594 43.216L220.709 43.1068L220.94 42.9977L221.055 42.8886L221.285 42.7795L221.401 42.6704L221.516 42.5612L221.746 42.452L221.861 42.3429L221.977 42.2338L222.207 42.1247L222.322 42.0155L222.437 41.9063L222.668 41.7972L222.783 41.6882L222.898 41.579L223.013 41.4699L223.129 41.3607L223.244 41.2515L223.359 41.1424L223.474 41.0334L223.589 40.9242L223.705 40.815L223.82 40.7059L223.935 40.5968L224.05 40.4876L224.165 40.3786L224.28 40.2694L224.396 40.1602L224.511 39.942L224.626 39.8329L224.741 39.7237L224.856 39.6145L224.972 39.3964L225.087 39.2872L225.202 39.1781L225.317 38.9598L225.432 38.8507L225.548 38.7416L225.663 38.5234L225.778 38.4142L225.893 38.1959L226.008 38.0868L226.124 37.8686L226.239 37.7594L226.354 37.5411L226.469 37.4321L226.584 37.2138L226.7 37.1046L226.815 36.8864L226.93 36.6681L227.045 36.559L227.16 36.3407L227.276 36.1224L227.391 36.0133L227.506 35.795L227.621 35.5767L227.736 35.4676L227.852 35.2494L227.967 35.0311L228.082 34.8128L228.197 34.5947L228.312 34.4855L228.427 34.2671L228.543 34.049L228.658 33.8306L228.773 33.6124L228.888 33.3942L229.003 33.1759L229.119 32.9576L229.234 32.7393L229.349 32.5211L229.464 32.3028L229.579 32.0845L229.695 31.8663L229.81 31.648L229.925 31.4298L230.04 31.2114L230.155 30.9932L230.271 30.775L230.386 30.4476L230.501 30.2293L230.616 30.1202L230.731 29.7928L230.847 29.6836L230.962 29.4654V29.2471H230.731L230.616 29.3562L230.501 29.5745L230.386 29.7928L230.271 30.011L230.155 30.1202L230.04 30.3385L229.925 30.5566L229.81 30.775L229.695 30.8841L229.579 31.1024L229.464 31.3206L229.349 31.5389L229.234 31.648L229.119 31.8663L229.003 32.0845L228.888 32.3028L228.773 32.412L228.658 32.6302L228.543 32.8485L228.427 33.0668L228.312 33.285L228.197 33.3942L228.082 33.6124L227.967 33.8306L227.852 34.049L227.736 34.158L227.621 34.3763L227.506 34.5947L227.391 34.8128L227.276 34.9219L227.16 35.1403L227.045 35.3585L226.93 35.5767L226.815 35.6859L226.7 35.9042L226.584 36.1224L226.469 36.2316L226.354 36.4498L226.239 36.6681L226.124 36.7772L226.008 36.9954L225.893 37.1046L225.778 37.3229L225.663 37.4321L225.548 37.6502L225.432 37.7594L225.317 37.8686L225.202 38.0868L225.087 38.1959L224.972 38.4142L224.856 38.5234L224.741 38.6324L224.626 38.7416L224.511 38.9598L224.396 39.0689L224.28 39.1781L224.165 39.2872L224.05 39.5055L223.935 39.6145L223.82 39.7237L223.705 39.8329L223.589 39.942L223.474 40.0512L223.359 40.1602L223.244 40.2694L223.129 40.3786L223.013 40.4876L222.898 40.5968L222.783 40.7059L222.668 40.815L222.553 40.9242L222.437 41.0334L222.322 41.1424L222.207 41.2515L222.092 41.3607L221.977 41.4699L221.746 41.579L221.631 41.6882L221.516 41.7972L221.401 41.9063L221.17 42.0155L221.055 42.1247L220.825 42.2338L220.709 42.3429L220.479 42.452L220.364 42.5612L220.134 42.6704L220.018 42.7795L219.788 42.8886L219.558 42.9977L219.327 43.1068L219.097 43.216L218.866 43.3252L218.636 43.4342L218.406 43.5433L218.06 43.6525L217.83 43.7616L217.484 43.8707L217.138 43.9799L216.793 44.089L216.332 44.1981L215.986 44.3073L215.526 44.4164L214.835 44.5256L214.259 44.6347L213.452 44.7438L212.185 44.8529H207.808L206.771 44.7438L206.08 44.6347L205.619 44.5256L204.928 44.4164L204.582 44.3073L204.122 44.1981L203.661 44.089L203.315 43.9799L202.854 43.8707L202.509 43.7616L202.163 43.6525L201.818 43.5433L201.472 43.4342L201.011 43.3252L200.666 43.216L200.32 43.1068L199.859 42.9977L199.629 42.8886L199.168 42.7795L198.823 42.6704L198.362 42.5612L198.016 42.452L197.556 42.3429L197.21 42.2338L196.749 42.1247L196.404 42.0155L195.828 41.9063L195.482 41.7972L195.021 41.6882L194.561 41.579L194.1 41.4699L193.524 41.3607L193.063 41.2515L192.372 41.1424L191.681 41.0334L190.99 40.9242L189.953 40.815L188.801 40.7059H184.308H183.963L184.078 40.5968L184.193 40.4876L184.308 40.3786L184.423 40.2694L184.539 40.0512L184.654 39.942L184.769 39.8329L184.884 39.6145L184.999 39.5055L185.115 39.2872L185.23 39.0689L185.345 38.9598L185.46 38.7416L185.575 38.5234L185.691 38.305L185.806 38.0868L185.921 37.7594L186.036 37.4321L186.151 37.2138L186.267 36.8864L186.382 36.4498L186.497 36.1224L186.612 35.6859L186.727 35.2494L186.843 34.8128L186.958 34.2671L187.073 33.8306L187.188 33.285L187.303 32.7393L187.418 32.3028L187.534 31.7572L187.649 31.3206L187.764 30.6658L187.879 30.2293L187.995 29.7928L188.11 29.138L188.225 28.7015L188.34 28.1559L188.455 27.7193L188.57 27.1737L188.686 26.6279L188.801 26.1914L188.916 25.6457L189.031 25.1001L189.146 24.6637L189.262 24.1179L189.377 23.6814L189.492 23.1357L189.607 22.5901L189.722 22.1536L189.838 21.6079L189.953 21.1714L190.068 20.6258L190.183 20.0802V19.8618H189.953L189.722 19.971L189.492 20.0802L189.262 20.1892L188.916 20.2983L188.455 20.4075L187.649 20.5166H185.806H185.575V20.7349L185.691 20.8439L185.921 20.9531L186.036 21.0623L186.151 21.1714L186.267 21.2805L186.382 21.4987L186.497 21.9353V22.4809L186.382 22.9175L186.267 23.5723L186.151 24.0088L186.036 24.5545L185.921 25.1001L185.806 25.5367L185.691 26.0823L185.575 26.6279L185.46 27.1737L185.345 27.6102L185.23 28.0467L185.115 28.4832L184.999 28.8106L184.884 29.138L184.769 29.4654L184.654 29.6836L184.539 29.9018L184.423 30.1202L184.308 30.3385L184.193 30.5566L184.078 30.775L183.963 30.8841L183.848 31.1024L183.732 31.2114L183.617 31.4298L183.502 31.5389L183.387 31.648L183.156 31.7572L183.041 31.8663L182.926 31.9754L182.811 32.0845L182.58 32.1937L182.35 32.3028L182.235 32.412L182.004 32.5211L181.774 32.6302L181.429 32.7393L181.198 32.8485L180.852 32.9576L180.392 33.0668H178.779L178.433 32.9576L178.203 32.8485L177.973 32.7393L177.857 32.6302L177.742 32.5211L177.627 32.412L177.512 32.3028L177.397 32.0845L177.282 31.648V30.6658L177.397 30.011L177.512 29.5745L177.627 29.0288L177.742 28.5923L177.857 28.1559L177.973 27.5011L178.088 27.0645L178.203 26.5189L178.318 26.0823L178.433 25.5367L178.549 24.991L178.664 24.5545L178.779 24.0088L178.894 23.5723L179.009 23.1357L179.125 22.4809L179.24 22.0445L179.355 21.4987L179.47 21.0623L179.585 20.5166L179.701 20.0802V19.8618H179.47L179.24 19.971Z" fill="#FF3030"/>
<path fill-rule="evenodd" clip-rule="evenodd" d="M76.2574 19.971L76.027 20.0802L75.7966 20.1892L75.4511 20.2983L74.9902 20.4075L74.1839 20.5166H72.3407H72.1104V20.7349L72.2255 20.8439L72.4561 20.9531L72.5711 21.0623L72.6863 21.1714L72.8016 21.3897L72.9168 21.6079V22.5901L72.8016 23.1357L72.6863 23.5723L72.5711 24.2271L72.4561 24.6637L72.3407 25.3185L72.2255 25.7549L72.1104 26.3006L71.9952 26.8462L71.88 27.3919L71.7648 27.9375L71.6496 28.4832L71.5344 29.0288L71.4192 29.5745L71.3041 30.011L71.1888 30.6658L71.0737 31.2114L70.9584 31.648V33.3942L71.0737 33.7216L71.1888 33.9398L71.3041 34.158L71.4192 34.2671L71.5344 34.3763L71.6496 34.5947L71.7648 34.7037L71.9952 34.8128L72.1104 34.9219L72.2255 35.0311L72.3407 35.1403L72.5711 35.2494L72.8016 35.3585L73.1472 35.4676L73.3775 35.5767L74.0687 35.6859H76.027L76.7181 35.5767L77.1789 35.4676L77.5245 35.3585L77.87 35.2494L78.1005 35.1403L78.446 35.0311L78.6764 34.9219L78.7915 34.8128L79.022 34.7037L79.2524 34.5947L79.4828 34.4855L79.598 34.3763L79.8284 34.2671L79.9436 34.158L80.0587 34.049L80.2891 33.9398L80.4043 33.8306L80.5195 33.7216L80.6348 33.6124L80.7498 33.5033L80.8651 33.3942L81.0955 33.285L81.2265 33.0687L81.0955 33.5033L80.9803 34.049L80.8651 34.4855L80.7498 35.0311L80.6348 35.4676L80.5195 35.795L80.4043 36.2316L80.2891 36.559L80.1739 36.8864L80.0587 37.1046L79.9436 37.4321L79.8284 37.6502L79.7131 37.8685L79.598 38.0868L79.4828 38.305L79.3676 38.5234L79.2524 38.6324L79.1372 38.8507L79.022 38.9598L78.9068 39.1781L78.7915 39.2872L78.6764 39.3964L78.5613 39.5055L78.446 39.6145L78.2157 39.7237L78.1005 39.8329L77.87 39.942L77.7549 40.0512L77.5245 40.1602L77.2941 40.2694L76.8333 40.3786L76.2574 40.4876H74.875L74.299 40.3786L73.9535 40.2694L73.7231 40.1602L73.4927 40.0512L73.3775 39.942L73.1472 39.8329L73.0319 39.6145L72.9168 39.5055L72.8016 39.1781V38.5234L72.9168 38.305L73.0319 38.1959L73.1472 38.0868L73.3775 37.9777V37.7594L73.1472 37.6502L72.8016 37.5411L72.2255 37.4321H71.1888L70.8432 37.5411L70.4976 37.6502L70.2673 37.7594L70.152 37.8685L70.0369 37.9777L69.9217 38.0868L69.8064 38.1959L69.6913 38.4142L69.5762 38.5234L69.4609 38.8507V40.2694L69.5762 40.5968L69.6913 40.815L69.8064 40.9242L69.9217 41.1424L70.0369 41.2515L70.152 41.3607L70.2673 41.4699L70.3825 41.579L70.6129 41.6882L70.7281 41.7972L70.8432 41.9063L71.0737 42.0155L71.3041 42.1247L71.5344 42.2338L71.7648 42.3429L71.9952 42.452L72.4561 42.5612L72.8016 42.6704L73.3775 42.7795L74.875 42.8886H75.4511L76.8333 42.7795L77.2941 42.6704L77.7549 42.5612L78.1005 42.452L78.446 42.3429L78.6764 42.2338L78.9068 42.1247L79.1372 42.0155L79.3676 41.9063L79.598 41.7972L79.7131 41.6882L79.9436 41.579L80.0587 41.4699L80.1739 41.3607L80.4043 41.2515L80.5195 41.1424L80.6348 41.0334L80.7498 40.9242L80.8651 40.815L80.9803 40.7059L81.0955 40.5968L81.2106 40.4876L81.326 40.3786L81.4411 40.2694L81.5563 40.1602L81.6715 39.942L81.7867 39.8329L81.9019 39.7237L82.0171 39.5055L82.1322 39.3964L82.2474 39.1781L82.3627 38.9598L82.4778 38.7416L82.5929 38.5234L82.7083 38.4142L82.8234 38.0868L82.9385 37.8685L83.0539 37.5411L83.169 37.3229L83.2841 36.9954L83.3994 36.559L83.5146 36.2316L83.6297 35.795L83.7449 35.3585L83.8601 34.9219L83.9753 34.3763L84.0906 33.9398L84.2056 33.3942L84.3209 32.8485L84.4362 32.412L84.5513 31.8663L84.6664 31.4298L84.7818 30.8841L84.8969 30.3385L85.012 29.9018L85.1272 29.3562L85.2426 28.9197L85.3576 28.374L85.4728 27.8284L85.5881 27.3919L85.7033 26.8462L85.8184 26.3006L85.9337 25.8641L86.0488 25.3185L86.164 24.8819L86.2792 24.2271L86.3944 23.7905L86.5096 23.354L86.6248 22.8083L86.7399 22.2628L86.8552 21.7171L86.9704 21.2805L87.0855 20.7349L87.2007 20.1892V19.8618H86.9704L86.8552 19.971L86.5096 20.0802L86.2792 20.1892L85.9337 20.2983L85.5881 20.4075L84.6664 20.5166H82.9385H82.5929V20.7349L82.7083 20.8439L82.9385 20.9531L83.169 21.0623L83.2841 21.2805L83.3994 21.3897L83.5146 21.7171V22.5901L83.3994 23.1357L83.2841 23.6814L83.169 24.1179L83.0539 24.7727L82.9385 25.2093L82.8234 25.7549L82.7083 26.3006L82.5929 26.737L82.4778 27.2827L82.3627 27.7193L82.2474 28.2649L82.1322 28.5923L82.0171 28.9197L81.9019 29.2471L81.7867 29.4654L81.6715 29.7928L81.5563 30.011L81.4411 30.2293L81.326 30.4476L81.2106 30.6658L81.0955 30.775L80.9803 30.9932L80.8651 31.1024L80.7498 31.3206L80.6348 31.4298L80.5195 31.5389L80.4043 31.648L80.2891 31.7572L80.1739 31.8663L79.9436 31.9754L79.8284 32.0845L79.598 32.1937L79.4828 32.3028L79.2524 32.412L79.022 32.5211L78.7915 32.6302L78.5613 32.7393L78.2157 32.8485L77.87 32.9576L77.4093 33.0667H75.9118L75.4511 32.9576L75.2206 32.8485L74.9902 32.7393L74.875 32.6302L74.7598 32.5211L74.6446 32.412L74.5295 32.1937L74.4143 31.9754L74.299 31.4298V30.8841L74.4143 30.2293L74.5295 29.7928L74.6446 29.2471L74.7598 28.7015L74.875 28.2649L74.9902 27.7193L75.1054 27.2827L75.2206 26.737L75.3357 26.1914L75.4511 25.7549L75.5662 25.2093L75.6814 24.7727L75.7966 24.2271L75.9118 23.6814L76.027 23.2449L76.1422 22.6993L76.2574 22.2628L76.3726 21.7171L76.4878 21.1714L76.603 20.7349L76.7181 20.1892V19.8618H76.4878L76.2574 19.971Z" fill="#FF3030"/>
<path fill-rule="evenodd" clip-rule="evenodd" d="M129.133 19.971L128.903 20.0802L128.557 20.1892L128.212 20.2983L127.636 20.4075L124.871 20.5166V20.7349L125.102 20.8439L125.332 20.9531L125.447 21.0623L125.563 21.1714L125.678 21.2805L125.793 21.6079V22.4809L125.678 23.2449L125.563 23.6814L125.447 24.2271L125.332 24.7727L125.217 25.2093L125.102 25.8641L124.986 26.3006L124.871 26.8462L124.756 27.2827L124.641 27.8284L124.526 28.374L124.41 28.8106L124.295 29.3562L124.18 29.9018L124.065 30.3385L123.95 30.8841L123.835 31.4298L123.719 31.8663L123.604 32.412L123.489 32.8485L123.374 33.5033L123.259 33.9398L123.143 34.4855L123.028 34.9219L122.913 35.4676L122.798 36.0133L122.683 36.4498L122.568 36.9954L122.452 37.5411L122.337 37.9777L122.222 38.5234L122.107 39.0689L121.991 39.5055L121.876 40.0512L121.761 40.3786L121.646 40.7059L121.531 41.0334L121.416 41.2515L121.3 41.3607L121.185 41.4699L121.07 41.6882L120.955 41.7972L120.84 41.9063L120.609 42.0155L120.494 42.1247L120.379 42.2338L120.148 42.3429V42.5612H125.678V42.3429L125.563 42.2338L125.447 42.1247L125.332 42.0155L125.217 41.9063L125.102 41.6882L124.986 41.3607V40.3786L125.102 39.7237L125.217 39.2872L125.332 38.8507L125.447 38.305L125.563 37.8686L125.678 37.3229L125.793 36.7772L125.908 36.3407L126.023 35.795L126.138 35.3585L126.254 34.8128L126.369 34.3763L126.484 33.8306L126.599 33.285L126.714 32.8485L126.83 32.412L126.945 31.8663L127.06 31.4298L127.175 30.8841L127.29 30.3385L127.406 29.9018L127.521 29.3562L127.636 28.9197L127.751 28.374L127.866 27.9375L127.981 27.3919L128.097 26.8462L128.212 26.5189L128.327 26.0823L128.442 25.7549L128.557 25.4275L128.673 25.2093L128.788 24.991L128.903 24.7727L129.018 24.5545L129.133 24.3362L129.249 24.2271L129.364 24.1179L129.479 23.8997L129.594 23.7905L129.709 23.6814L129.825 23.5723L129.94 23.4631L130.055 23.354L130.285 23.2449L130.401 23.1357L130.516 23.0266L130.746 22.9175L130.977 22.8083L131.207 22.6993L131.553 22.5901L131.898 22.4809H133.856L134.202 22.5901L134.432 22.6993L134.663 22.8083L134.893 22.9175L135.008 23.0266L135.123 23.1357H135.354V23.354L135.469 23.4631L135.584 23.5723L135.7 23.7905L135.815 23.8997L135.93 24.1179L136.045 24.4453L136.16 24.6637L136.276 25.1001L136.391 25.5367V28.374L136.276 28.9197L136.16 29.4654L136.045 29.7928L135.93 30.1202L135.815 30.3385L135.7 30.5566L135.584 30.775L135.469 30.9932L135.354 31.2114L135.239 31.4298L135.123 31.5389L135.008 31.7572L134.893 31.8663L134.778 31.9754L134.663 32.0845L134.548 32.3028L134.432 32.412L134.317 32.5211L134.202 32.6302L133.972 32.7393L133.856 32.8485L133.741 32.9576L133.626 33.0668L133.396 33.1759L133.165 33.285L132.935 33.3942L132.704 33.5033L132.474 33.6124L132.129 33.7216L131.553 33.8306H129.479L128.903 33.7216L128.673 33.6124L128.442 33.5033L128.097 33.3942L127.981 33.285L127.751 33.1759L127.636 33.0668L127.521 32.9576L127.406 32.8485L127.29 32.7393L127.175 32.6302H126.945V32.8485L127.06 33.285L127.175 33.7216L127.29 34.158L127.406 34.5947L127.521 35.1403L127.636 35.5767L127.751 35.795L128.097 35.9042L128.557 36.0133L128.903 36.1224L129.709 36.2316H131.437L132.359 36.1224L132.935 36.0133L133.396 35.9042L133.741 35.795L133.972 35.6859L134.317 35.5767L134.548 35.4676L134.778 35.3585L135.008 35.2494L135.123 35.1403L135.354 35.0311L135.584 34.9219L135.7 34.8128L135.815 34.7037L136.045 34.5947L136.16 34.4855L136.276 34.3763L136.391 34.2671L136.621 34.158L136.736 34.049L136.851 33.9398L136.967 33.8306L137.082 33.7216L137.197 33.5033L137.312 33.3942L137.427 33.285L137.543 33.1759L137.658 33.0668L137.773 32.9576L137.888 32.7393L138.003 32.6302L138.119 32.412L138.234 32.3028L138.349 32.0845L138.464 31.9754L138.579 31.7572L138.695 31.5389L138.81 31.3206L138.925 31.1024L139.04 30.775L139.155 30.5566L139.271 30.2293L139.386 29.9018L139.501 29.5745L139.616 29.0288L139.731 28.4832L139.847 27.7193V25.3185L139.731 24.5545L139.616 24.1179L139.501 23.6814L139.386 23.354L139.271 23.0266L139.155 22.8083L139.04 22.5901L138.925 22.3719L138.81 22.2628L138.695 22.0445L138.579 21.9353L138.464 21.7171L138.349 21.6079L138.234 21.4987L138.119 21.3897L138.003 21.2805L137.888 21.1714L137.773 21.0623L137.543 20.9531L137.427 20.8439L137.312 20.7349L137.082 20.6258L136.851 20.5166L136.506 20.4075L136.276 20.2983L135.815 20.1892L135.239 20.0802H133.05L132.474 20.1892L132.013 20.2983L131.783 20.4075L131.437 20.5166L131.207 20.6258L130.977 20.7349L130.746 20.8439L130.631 20.9531L130.401 21.0623L130.285 21.1714L130.17 21.2805L130.055 21.3897L129.825 21.4987L129.709 21.6079L129.594 21.7171L129.479 21.8262L129.364 21.9353L129.249 22.1536L129.133 22.2628L129.018 22.3719L129.133 21.9353L129.249 21.4987L129.364 21.0623L129.479 20.5166L129.594 20.1892V19.8618H129.364L129.133 19.971Z" fill="#FF3030"/>
<path fill-rule="evenodd" clip-rule="evenodd" d="M61.8612 12.0044L61.17 12.1135L60.7093 12.2227L60.2485 12.3318L59.9029 12.441L59.4421 12.5501L59.2118 12.6591L58.8661 12.7683L58.6357 12.8775L58.4053 12.9866L58.0597 13.0957L57.8294 13.2048L57.7142 13.314L57.4838 13.4231L57.2534 13.5323L57.023 13.6414L56.9079 13.7505L56.6774 13.8596L56.5623 13.9688L56.3318 14.0779L56.2166 14.1871L56.1015 14.2961L55.8711 14.4053L55.7559 14.5144L55.6407 14.6236L55.5255 14.7327L55.2952 14.8418L55.1799 14.9509L55.0647 15.0601L54.9496 15.1692L54.8344 15.2784L54.7192 15.3874L54.604 15.4966L54.4888 15.6057L54.3736 15.7149L54.2584 15.8241L54.1432 15.9331L54.028 16.0422L53.9128 16.1514L53.7977 16.2606L53.6823 16.4788L53.5672 16.5879L53.452 16.6971L53.3368 16.8062L53.2216 17.0245L53.1064 17.1336L52.9912 17.2427L52.8761 17.3519L52.7609 17.5701L52.6456 17.6793L52.5305 17.8975L52.4153 18.0066L52.3001 18.2249L52.1849 18.4432L52.0697 18.5522L51.9545 18.7706L51.8394 18.9889L51.7241 19.2071L51.6089 19.4254L51.4938 19.6436L51.3785 19.8619L51.2634 20.1893L51.1482 20.4076L51.0329 20.735L50.9177 21.0624L50.8027 21.3898L50.6874 21.7171L50.5721 22.2628L50.457 22.6994L50.3419 23.3541L50.2266 24.3363V26.7371L50.3419 27.5012L50.457 28.156L50.5721 28.4833L50.6874 28.9198L50.8027 29.1381L50.9177 29.4655L51.0329 29.6837L51.1482 29.9019L51.2634 30.1203L51.3785 30.3386L51.4938 30.5567L51.6089 30.7751L51.7241 30.8841L51.8394 31.1025L51.9545 31.2115L52.0697 31.3207L52.1849 31.539L52.3001 31.6481L52.4153 31.7573L52.5305 31.8664L52.6456 31.9754L52.7609 32.0846L52.8761 32.1938L52.9912 32.3029L53.1064 32.4121L53.2216 32.5211L53.3368 32.6302L53.452 32.7394L53.5672 32.8486L53.7977 32.9577L53.9128 33.0668L54.028 33.1759L54.2584 33.2851L54.3736 33.3943L54.604 33.5034L54.8344 33.6125L54.9496 33.7216L55.1799 33.8307L55.4103 33.9399L55.7559 34.0491L55.9863 34.1581L56.3318 34.2672L56.6774 34.3764L56.9079 34.4856L57.4838 34.5948L57.9446 34.7038L58.5207 34.8129L59.5573 34.922H62.8979L63.9347 34.8129L64.6258 34.7038L65.2018 34.5948L65.7778 34.4856L66.1235 34.3764L66.469 34.2672L66.5842 34.0491L66.6993 33.8307L66.8146 33.6125L66.9297 33.3943L67.0449 33.1759L67.1601 32.9577L67.2753 32.7394L67.3905 32.5211L67.5057 32.3029L67.6209 32.0846L67.7361 31.8664L67.8513 31.6481L67.9664 31.3207L68.0817 31.1025L68.1969 30.8841L68.312 30.6659L68.4273 30.4477L68.5425 30.3386V30.2294H68.312L68.0817 30.3386L67.9664 30.4477L67.8513 30.5567L67.6209 30.6659L67.5057 30.7751L67.2753 30.8841L67.0449 30.9933L66.9297 31.1025L66.6993 31.2115L66.469 31.3207L66.2385 31.4298L65.8929 31.539L65.6626 31.6481L65.4322 31.7573L64.9714 31.8664L64.6258 31.9754L64.165 32.0846L63.7043 32.1938L63.0131 32.3029H59.7877L59.2118 32.1938L58.7509 32.0846L58.2902 31.9754L58.0597 31.8664L57.7142 31.7573L57.4838 31.6481L57.2534 31.539L57.023 31.4298L56.7927 31.3207L56.6774 31.2115L56.4471 31.1025L56.3318 30.9933L56.2166 30.8841L56.1015 30.7751L55.9863 30.6659L55.8711 30.5567L55.7559 30.4477L55.6407 30.3386L55.5255 30.2294L55.4103 30.1203L55.2952 30.0111L55.1799 29.7929L55.0647 29.6837L54.9496 29.4655L54.8344 29.2472L54.7192 29.1381L54.604 28.9198L54.4888 28.5924L54.3736 28.3741L54.2584 28.0468L54.1432 27.6103L54.028 27.0646L53.9128 26.4098V24.3363L54.028 23.3541L54.1432 22.5902L54.2584 22.1537L54.3736 21.7171L54.4888 21.2806L54.604 20.9532L54.7192 20.6258L54.8344 20.4076L54.9496 20.0803L55.0647 19.8619L55.1799 19.6436L55.2952 19.4254L55.4103 19.2071L55.5255 18.9889L55.6407 18.8797L55.7559 18.6614L55.8711 18.5522L55.9863 18.3341L56.1015 18.2249L56.2166 18.0066L56.3318 17.8975L56.4471 17.7884L56.5623 17.5701L56.6774 17.461L56.7927 17.3519L56.9079 17.2427L57.023 17.1336L57.1381 17.0245L57.2534 16.9153L57.3686 16.8062L57.4838 16.6971L57.599 16.5879L57.8294 16.4788L57.9446 16.3697L58.0597 16.2606L58.175 16.1514L58.4053 16.0422L58.5207 15.9331L58.7509 15.8241L58.8661 15.7149L59.0965 15.6057L59.327 15.4966L59.4421 15.3874L59.6726 15.2784L60.0181 15.1692L60.2485 15.0601L60.594 14.9509L60.9396 14.8418L61.2852 14.7327L61.8612 14.6236L62.5523 14.5144H65.2018L65.8929 14.6236L66.3538 14.7327L66.6993 14.8418L67.0449 14.9509L67.3905 15.0601L67.5057 15.1692L67.7361 15.2784L67.9664 15.3874L68.0817 15.4966L68.312 15.6057L68.4273 15.7149L68.5425 15.8241L68.6576 15.9331L68.7728 16.0422L68.8881 16.1514L69.0033 16.3697L69.1184 16.4788L69.2336 16.5879L69.3488 16.8062L69.464 17.0245L69.5792 17.2427L69.6944 17.461L69.9248 17.5701H70.0399V17.3519V17.1336L70.1551 16.4788L70.2704 15.8241L70.3855 15.0601L70.5006 14.4053L70.616 13.5323V12.9866L70.2704 12.8775L69.9248 12.7683L69.5792 12.6591L69.2336 12.5501L68.7728 12.441L68.4273 12.3318L67.8513 12.2227L67.3905 12.1135L66.5842 12.0044L65.317 11.8953H63.0131L61.8612 12.0044Z" fill="#FF3030"/>
<path fill-rule="evenodd" clip-rule="evenodd" d="M223.822 19.971L223.592 20.0802L223.246 20.1892L222.786 20.2983L222.325 20.4075H221.519L220.943 20.2983L220.251 20.1892L219.445 20.0802H216.911L216.22 20.1892L215.528 20.2983L215.183 20.4075L214.722 20.5166L214.377 20.6258L214.146 20.7349L213.8 20.8439L213.57 20.9531L213.34 21.0623L213.109 21.1714L212.994 21.2805L212.764 21.3897L212.533 21.4987L212.418 21.6079L212.188 21.7171L212.073 21.8262L211.842 21.9353L211.727 22.0445L211.612 22.1536L211.497 22.2628L211.266 22.3719L211.151 22.4809L211.036 22.5901L210.921 22.6993L210.805 22.8083L210.69 22.9175L210.575 23.0266L210.46 23.1357L210.345 23.2449L210.23 23.354L210.114 23.5723L209.999 23.6814L209.884 23.7905L209.769 23.8997L209.653 24.1179L209.538 24.2271L209.423 24.3362L209.308 24.5545L209.193 24.6637L209.078 24.8819L208.962 25.1001L208.847 25.3185L208.732 25.4275L208.617 25.6457L208.502 25.8641L208.386 26.1914L208.271 26.4097L208.156 26.737L208.041 27.1737L207.926 27.5011L207.81 28.0467L207.695 28.8106V31.4298L207.81 31.9754L207.926 32.412L208.041 32.7393L208.156 33.0667L208.271 33.285L208.386 33.5033L208.502 33.7216L208.617 33.8306L208.732 34.049L208.847 34.158L208.962 34.3763L209.078 34.4855L209.193 34.5947L209.308 34.7037L209.423 34.8128L209.538 34.9219L209.653 35.0311L209.769 35.1403L209.884 35.2494L210.114 35.3585L210.23 35.4676L210.46 35.5767L210.69 35.6859L210.921 35.795L211.151 35.9042L211.497 36.0133L211.842 36.1224L212.649 36.2316H214.031L214.722 36.1224L215.068 36.0133L215.413 35.9042L215.528 35.795L215.644 35.6859L215.759 35.4676L215.874 35.3585L215.989 35.2494L216.104 35.1403L216.22 34.9219L216.335 34.8128L216.45 34.7037L216.565 34.5947L216.68 34.3763L216.796 34.2671L216.911 34.158L217.026 34.049L217.141 33.8306L217.256 33.7216L217.372 33.6124L217.487 33.5033L217.602 33.285L217.717 33.1759L217.832 33.0667L217.947 32.9576V32.7393H217.832L217.602 32.8485L217.372 32.9576L217.141 33.0667L216.796 33.1759L216.45 33.285L216.104 33.3942L215.644 33.5033L215.068 33.6124H213.57L213.109 33.5033L212.764 33.3942L212.533 33.285L212.418 33.1759L212.188 33.0667L212.073 32.9576L211.957 32.8485L211.842 32.7393L211.727 32.521L211.612 32.412L211.497 32.1937L211.381 31.9754L211.266 31.648L211.151 31.1024L211.036 30.4476V28.9197L211.151 28.0467L211.266 27.3919L211.381 27.0645L211.497 26.737L211.612 26.4097L211.727 26.0823L211.842 25.8641L211.957 25.6457L212.073 25.4275L212.188 25.2093L212.303 25.1001L212.418 24.8819L212.533 24.7727L212.649 24.5545L212.764 24.4453L212.879 24.3362L212.994 24.2271L213.109 24.0088L213.225 23.8997L213.34 23.7905L213.455 23.6814L213.685 23.5723L213.8 23.4631L213.916 23.354L214.146 23.2449L214.261 23.1357L214.492 23.0266L214.722 22.9175L214.837 22.8083L215.183 22.6993L215.528 22.5901L215.759 22.4809L216.335 22.3719L217.256 22.2628H217.832L218.639 22.3719L219.33 22.4809L219.56 22.5901L219.906 22.6993L220.251 22.8083L220.367 22.9175L220.611 22.9185L220.482 23.5723L220.367 24.0088L220.251 24.5545L220.136 25.1001L220.021 25.5367L219.906 26.1914L219.791 26.6279L219.675 27.1737L219.56 27.7192L219.445 28.1559L219.33 28.8106L219.215 29.2471L219.099 29.9018L218.984 30.3385L218.869 30.8841L218.754 31.4298L218.639 31.8663L218.523 32.521L218.408 32.9576V34.3763L218.523 34.7037L218.639 34.9219L218.754 35.1403L218.869 35.2494L218.984 35.3585L219.099 35.4676L219.215 35.5767L219.445 35.6859L219.675 35.795L219.906 35.9042L220.367 36.0133H221.634L222.325 35.9042L222.44 35.795L222.555 35.5767L222.67 35.4676L222.786 35.3585L222.901 35.2494L223.016 35.1403L223.131 35.0311L223.246 34.9219L223.362 34.8128L223.477 34.7037L223.592 34.5947L223.707 34.4855L223.822 34.3763L223.938 34.2671L224.053 34.158L224.168 34.049L224.283 33.9398L224.398 33.8306L224.513 33.7216V33.5033H224.283L224.168 33.6124L223.938 33.7216H222.325L222.094 33.6124L221.979 33.5033L221.864 33.3942L221.749 33.0667V32.1937L221.864 31.648L221.979 31.1024L222.094 30.5566L222.21 30.1202L222.325 29.4654L222.44 29.0288L222.555 28.4832L222.67 27.9375L222.786 27.3919L222.901 26.8462L223.016 26.3006L223.131 25.7549L223.246 25.2093L223.362 24.7727L223.477 24.1179L223.592 23.6814L223.707 23.1357L223.822 22.5901L223.938 22.0445L224.053 21.4987L224.168 21.0623L224.283 20.5166V19.8618H224.053L223.822 19.971Z" fill="#FF3030"/>
<path fill-rule="evenodd" clip-rule="evenodd" d="M94.804 19.971L94.5737 20.0802L94.3432 20.1892L93.8824 20.2983L93.5367 20.4075L92.6153 20.5166H90.8874H90.5418V20.7349L90.6571 20.8439L90.8874 20.9531L91.1178 21.0623L91.2329 21.2805L91.3481 21.3897L91.4633 21.7171V22.6993L91.3481 23.1357L91.2329 23.6814L91.1178 24.2271L91.0026 24.6637L90.8874 25.2093L90.7721 25.6457L90.6571 26.1914L90.5418 26.737L90.4266 27.1737L90.3114 27.7193L90.1962 28.265L90.081 28.7015L89.9658 29.2471L89.8506 29.6836L89.7355 30.3385L89.6203 30.775L89.505 31.2114L89.3899 31.7572L89.2747 32.3028L89.1595 32.8485L89.0443 33.1759L88.9291 33.6124L88.8138 33.9398L88.6987 34.158L88.5835 34.3763L88.4683 34.5947L88.3531 34.7037L88.238 34.8128V35.0311H88.0076L87.8923 35.1403L87.7771 35.2494L87.6619 35.3585L87.3164 35.4676V35.6859H92.8456V35.4676L92.6153 35.3585L92.5001 35.2494L92.3849 35.0311L92.2697 34.8128L92.1545 34.4855V33.8306L92.2697 33.0668L92.3849 32.5211L92.5001 31.9754L92.6153 31.5389L92.7305 30.9932L92.8456 30.5566L92.9609 29.9018L93.076 29.4654L93.1912 28.9197L93.3064 28.4832L93.4217 28.0467L93.5367 27.5011L93.652 27.1737L93.7672 26.8462L93.8824 26.5189L93.9975 26.1914L94.1129 25.9731L94.228 25.6457L94.3432 25.4275L94.4584 25.2093L94.5737 25.1001L94.6888 24.8819L94.804 24.6637L94.9191 24.5545L95.0344 24.4453L95.1496 24.2271L95.2647 24.1179L95.3799 24.0088L95.4952 23.8997L95.6103 23.7905L95.7254 23.6814L95.8407 23.5723L96.071 23.4632L96.1863 23.354L96.4166 23.2449L96.5318 23.1357L96.7622 23.0266L96.9925 22.9175L97.2231 22.8083L97.5687 22.6993L97.9142 22.5901L98.2597 22.4809H100.218L100.564 22.5901L100.794 22.6993L101.024 22.8083L101.14 22.9175L101.255 23.0266L101.37 23.2449L101.485 23.354L101.6 23.6814L101.716 24.2271V24.6637L101.6 25.3185L101.485 25.8641L101.37 26.4097L101.255 26.9554L101.14 27.3919L101.024 28.0467L100.909 28.5923L100.794 29.138L100.679 29.6836L100.564 30.2293L100.448 30.775L100.333 31.3206L100.218 31.8663L100.103 32.412L99.9877 32.9576V34.3763L100.103 34.7037L100.218 34.9219L100.333 35.1403L100.448 35.2494L100.564 35.3585L100.679 35.4676L100.794 35.5767L101.024 35.6859L101.14 35.795L101.485 35.9042L101.946 36.0133H103.444L103.904 35.9042L104.019 35.6859L104.135 35.5767L104.25 35.4676L104.365 35.3585L104.48 35.2494L104.595 35.1403L104.711 35.0311L104.826 34.9219L104.941 34.8128L105.056 34.7037L105.171 34.5947L105.287 34.3763L105.402 34.2672L105.517 34.158L105.632 34.049L105.747 33.9398L105.862 33.8306L105.978 33.7216V33.5033H105.862L105.632 33.6124L105.171 33.7216H104.019L103.674 33.6124L103.559 33.5033L103.444 33.285V31.7572L103.559 31.2114L103.674 30.6658L103.789 30.1202L103.904 29.5745L104.019 28.9197L104.135 28.4832L104.25 27.8284L104.365 27.3919L104.48 26.8462L104.595 26.1914L104.711 25.7549L104.826 25.1001L104.941 24.5545L105.056 24.1179V22.2628L104.941 22.0445L104.826 21.7171L104.711 21.6079L104.595 21.3897L104.48 21.2805L104.365 21.1714L104.25 21.0623L104.135 20.9531L104.019 20.8439L103.789 20.7349L103.674 20.6258L103.444 20.5166L103.098 20.4075L102.867 20.2983L102.407 20.1892L101.831 20.0802H99.6421L98.9509 20.1892L98.4902 20.2983L98.1445 20.4075L97.7989 20.5166L97.4534 20.6258L97.2231 20.7349L96.9925 20.8439L96.7622 20.9531L96.647 21.0623L96.4166 21.1714L96.3015 21.2805L96.071 21.3897L95.9559 21.4987L95.7254 21.6079L95.6103 21.7171L95.4952 21.8262L95.3799 21.9353L95.2647 22.0445L95.1496 22.1536L94.9191 22.2628L94.804 22.3719L94.6888 22.5901L94.5572 22.6962L94.6888 22.3719L94.804 21.9353L94.9191 21.4987L95.0344 20.9531L95.1496 20.5166L95.2647 20.0802V19.8618H95.0344L94.804 19.971Z" fill="#FF3030"/>
<path fill-rule="evenodd" clip-rule="evenodd" d="M118.648 24.882L118.533 25.1003L118.418 25.3186L118.303 25.4276L118.188 25.5368L118.072 25.6459L117.957 25.7551L117.842 25.8642L117.727 25.9732L117.497 26.0824L117.381 26.1916L117.151 26.3008L117.036 26.4098L116.805 26.519L116.575 26.628L116.345 26.7372L116.114 26.8464L115.884 26.9555L115.653 27.0646L115.308 27.1738L115.077 27.2829L114.732 27.3921L114.386 27.5012L114.041 27.6103L113.58 27.7194L113.234 27.8286L112.658 27.9377L111.967 28.0469L111.276 28.156H111.161L111.276 27.6103L111.391 27.2829L111.506 26.8464L111.622 26.628L111.737 26.3008L111.852 26.0824L111.967 25.8642L112.082 25.6459L112.198 25.4276L112.313 25.2095L112.428 25.1003L112.543 24.882L112.658 24.7728L112.774 24.6638L112.889 24.4455L113.004 24.3363L113.119 24.2272L113.234 24.1181L113.35 24.009L113.465 23.8998L113.58 23.7907L113.695 23.6815L113.81 23.5725L113.926 23.4633L114.041 23.3542L114.156 23.245L114.386 23.1359L114.502 23.0268L114.732 22.9177L114.962 22.8085L115.193 22.6994L115.538 22.5903L115.884 22.4811H117.612L117.842 22.5903L118.072 22.6994L118.303 22.8085L118.418 22.9177L118.533 23.0268L118.648 23.1359L118.764 23.3542V24.6638L118.648 24.882ZM115.999 20.1893L115.423 20.2985L115.077 20.4077L114.732 20.5167L114.386 20.6259L114.156 20.7351L113.81 20.8441L113.695 20.9533L113.465 21.0624L113.234 21.1715L113.004 21.2807L112.889 21.3899L112.658 21.4989L112.543 21.608L112.428 21.7172L112.198 21.8263L112.082 21.9355L111.967 22.0447L111.852 22.1537L111.737 22.2629L111.622 22.372L111.506 22.4811L111.391 22.5903L111.276 22.6994L111.161 22.8085L111.046 22.9177L110.93 23.0268L110.815 23.1359L110.7 23.3542L110.585 23.4633L110.47 23.5725L110.355 23.7907L110.239 23.8998L110.124 24.009L110.009 24.2272L109.894 24.3363L109.778 24.5547L109.663 24.7728L109.548 24.882L109.433 25.1003L109.318 25.3186L109.203 25.5368L109.087 25.7551L108.972 25.9732L108.857 26.1916L108.742 26.4098L108.627 26.7372L108.511 26.9555L108.396 27.2829L108.281 27.7194L108.166 28.0469L108.051 28.5925L107.936 29.1382L107.82 30.0112V31.9755L107.936 32.6303L108.051 33.0669L108.166 33.3944L108.281 33.6125L108.396 33.8308L108.511 34.0491L108.627 34.2673L108.742 34.3765L108.857 34.5948L108.972 34.7039L109.087 34.813L109.203 34.9221L109.318 35.0312L109.433 35.1404L109.548 35.2496L109.778 35.3587L109.894 35.4678L110.124 35.5768L110.355 35.686L110.585 35.7952L110.815 35.9044L111.276 36.0135L111.737 36.1225L112.658 36.2317H114.386L115.538 36.1225L116.114 36.0135L116.69 35.9044L117.036 35.7952L117.381 35.686L117.842 35.5768L118.072 35.4678L118.418 35.3587L118.764 35.2496L118.994 35.1404L119.224 35.0312L119.455 34.9221L119.57 34.813L119.685 34.5948L119.8 34.2673L119.916 33.8308L120.031 33.5034L120.146 33.176L120.261 32.7395L120.376 32.4121L120.492 31.9755V31.6482H120.261L120.146 31.8664L120.031 31.9755L119.916 32.0847L119.685 32.1939L119.57 32.303L119.455 32.4121L119.224 32.5212L119.109 32.6303L118.879 32.7395L118.764 32.8487L118.533 32.9577L118.303 33.0669L118.072 33.176L117.842 33.2852L117.612 33.3944L117.266 33.5034L116.921 33.6125L116.46 33.7217L115.769 33.8308H113.695L113.119 33.7217L112.889 33.6125L112.658 33.5034L112.428 33.3944L112.198 33.2852L112.082 33.176L111.967 33.0669H111.737V32.8487L111.622 32.7395L111.506 32.6303L111.391 32.4121L111.276 32.1939L111.161 31.9755L111.046 31.6482L110.93 30.9934L110.815 30.0112H111.622L112.428 29.902L113.119 29.7929L113.695 29.6837L114.156 29.5747L114.617 29.4656L115.077 29.3564L115.423 29.2472L115.769 29.1382L116.114 29.029L116.46 28.9199L116.69 28.8108L117.036 28.7016L117.266 28.5925L117.612 28.4833L117.842 28.3742L118.072 28.2651L118.303 28.156L118.533 28.0469L118.764 27.9377L118.879 27.8286L119.109 27.7194L119.34 27.6103L119.455 27.5012L119.57 27.3921L119.8 27.2829L119.916 27.1738L120.031 27.0646L120.261 26.9555L120.376 26.8464L120.492 26.7372L120.607 26.628L120.722 26.519L120.837 26.4098L120.952 26.3008L121.068 26.1916L121.183 25.9732L121.298 25.8642L121.413 25.7551L121.528 25.5368L121.643 25.4276L121.759 25.2095L121.874 24.9911L121.989 24.6638L122.104 24.4455L122.219 23.8998V22.5903L122.104 22.2629L121.989 21.9355L121.874 21.8263L121.759 21.608L121.643 21.4989L121.528 21.2807L121.413 21.1715L121.298 21.0624L121.068 20.9533L120.952 20.8441L120.837 20.7351L120.607 20.6259L120.376 20.5167L120.146 20.4077L119.916 20.2985L119.455 20.1893L118.879 20.0803H116.575L115.999 20.1893Z" fill="#FF3030"/>
<path fill-rule="evenodd" clip-rule="evenodd" d="M202.742 20.5166L202.972 20.6258L203.088 20.8439V21.8262L202.972 22.0445L202.857 22.1536L202.742 22.2628L202.627 22.3719L202.512 22.4809L202.397 22.5901L202.281 22.6993L202.166 22.8083L202.051 22.9175L201.936 23.0266L201.821 23.1357L201.705 23.2449L201.59 23.354L201.475 23.4631L201.36 23.5723L201.245 23.6814L201.129 23.7905L200.899 23.8997L200.784 24.0088L200.669 24.1179L200.553 24.2271L200.438 24.3362L200.323 24.4453L200.208 24.5545L200.093 24.6637L199.977 24.7727L199.862 24.8819L199.747 24.991L199.517 25.1001L199.401 25.2093L199.286 25.3185L199.171 25.4275L199.056 25.5367L198.941 25.6457L198.826 25.7549L198.71 25.8641L198.595 25.9731L198.48 26.0823L198.365 26.1914L198.25 26.3006L198.019 26.4097L197.904 26.5189L197.789 26.6279L197.674 26.737L197.558 26.8462L197.443 26.9554L197.328 27.0645L197.213 27.1737L197.098 27.2827L196.867 27.3919V27.7192L196.982 27.9375L197.098 28.1559L197.213 28.374L197.328 28.4832L197.443 28.7015L197.558 28.9197L197.674 29.138L197.789 29.3562L197.904 29.4654L198.019 29.6836L198.134 29.9018L198.25 30.1202L198.365 30.3385L198.48 30.5566L198.595 30.6658L198.71 30.8841L198.826 31.1024L198.941 31.3206L199.056 31.4298L199.171 31.648L199.286 31.8663L199.401 31.9754L199.517 32.1937L199.632 32.412L199.747 32.521L199.862 32.7393L199.977 32.8485L200.093 33.0667L200.208 33.285L200.323 33.3942L200.438 33.5033L200.553 33.7216L200.669 33.8306L200.784 34.049L200.899 34.158L201.014 34.2671L201.129 34.3763L201.245 34.5947L201.36 34.7037L201.475 34.8128L201.59 34.9219L201.705 35.0311L201.821 35.1403L201.936 35.2494L202.166 35.3585L202.281 35.4676L202.512 35.5767L202.742 35.6859L203.088 35.795L203.433 35.9042L204.355 36.0133H204.7L205.737 35.9042L206.544 35.795L206.659 35.6859V35.4676L206.428 35.3585L206.313 35.2494L206.198 35.1403L206.083 35.0311L205.968 34.9219L205.852 34.8128L205.622 34.7037L205.507 34.5947L205.392 34.4855L205.276 34.3763L205.161 34.2671L205.046 34.158L204.931 34.049L204.816 33.8306L204.7 33.7216L204.585 33.6124L204.47 33.5033L204.355 33.3942L204.24 33.285L204.124 33.0667L204.009 32.9576L203.894 32.8485L203.779 32.6302L203.664 32.521L203.548 32.412L203.433 32.1937L203.318 32.0845L203.203 31.8663L203.088 31.7572L202.972 31.5389L202.857 31.4298L202.742 31.2114L202.627 31.1024L202.512 30.8841L202.397 30.6658L202.281 30.5566L202.166 30.3385L202.051 30.1202L201.936 30.011L201.821 29.7928L201.705 29.5745L201.59 29.3562L201.475 29.2471L201.36 29.0288L201.245 28.8106L201.129 28.5923L201.014 28.374L200.899 28.2649L200.784 28.0467L200.669 27.8284L200.553 27.6102L200.438 27.3919L200.323 27.2827L200.208 27.0645V26.9554L200.323 26.8462L200.438 26.737L200.553 26.6279L200.784 26.5189L200.899 26.4097L201.014 26.3006L201.129 26.1914L201.245 26.0823L201.36 25.9731L201.475 25.8641L201.705 25.7549L201.821 25.6457L201.936 25.5367L202.051 25.4275L202.166 25.3185L202.281 25.2093L202.397 25.1001L202.627 24.991L202.742 24.8819L202.857 24.7727L202.972 24.6637L203.088 24.5545L203.203 24.4453L203.318 24.3362L203.548 24.2271L203.664 24.1179L203.779 24.0088L203.894 23.8997L204.009 23.7905L204.124 23.6814L204.24 23.5723L204.47 23.4631L204.585 23.354L204.7 23.2449L204.816 23.1357L204.931 23.0266L205.046 22.9175L205.161 22.8083L205.392 22.6993L205.507 22.5901L205.622 22.4809L205.737 22.3719L205.852 22.2628L205.968 22.1536L206.198 22.0445L206.313 21.9353L206.428 21.8262L206.544 21.7171L206.659 21.6079L206.774 21.4987L206.889 21.3897L207.004 21.2805L207.235 21.1714L207.35 21.0623L207.465 20.9531L207.58 20.8439L207.695 20.7349L207.811 20.6258L208.041 20.5166V20.2983H202.742V20.5166Z" fill="#FF3030"/>
<path fill-rule="evenodd" clip-rule="evenodd" d="M197.673 19.8619L197.443 19.971L197.212 20.0802L196.982 20.1892L196.636 20.2984L196.176 20.4076L195.254 20.5166H193.641H193.411L193.296 20.6258V20.735L193.526 20.844L193.757 20.9532L193.872 21.0623L193.987 21.1714L194.102 21.2806L194.217 21.3897L194.332 21.7171V22.2628L194.217 22.6993L194.102 23.2449L193.987 23.7905L193.872 24.3362L193.757 24.7727L193.641 25.3185L193.526 25.8641L193.411 26.3007L193.296 26.8462L193.181 27.3919L193.065 27.8285L192.95 28.3741L192.835 28.9198L192.72 29.4655L192.605 29.9019L192.49 30.4477L192.374 30.9933L192.259 31.4298L192.144 31.9754L192.029 32.5211L191.914 32.9576L191.798 33.5033L191.683 33.8307L191.568 34.1581L191.453 34.3764L191.337 34.5947L191.222 34.7038L191.107 34.922L190.992 35.0311L190.877 35.1403L190.646 35.2495L190.531 35.3586L190.301 35.4677V35.6859H195.6V35.4677L195.369 35.3586L195.254 35.1403L195.139 35.0311L195.024 34.7038V33.6124L195.139 33.0668L195.254 32.6302L195.369 32.0846L195.484 31.539L195.6 30.9933L195.715 30.4477L195.83 30.0111L195.945 29.4655L196.06 28.9198L196.176 28.3741L196.291 27.9376L196.406 27.3919L196.521 26.8462L196.636 26.4097L196.752 25.755L196.867 25.3185L196.982 24.8819L197.097 24.2271L197.212 23.7905L197.328 23.2449L197.443 22.6993L197.558 22.2628L197.673 21.7171L197.788 21.1714L197.904 20.6258L198.019 20.0802V19.7527H197.904L197.673 19.8619Z" fill="#FF3030"/>
<path fill-rule="evenodd" clip-rule="evenodd" d="M43.5419 22.4811L43.1964 22.5903L42.9659 22.6995L42.6204 22.8086L42.39 22.9177L42.1597 23.0268L42.0444 23.1359L41.8141 23.2451L41.6989 23.3543L41.5836 23.4634L41.3533 23.5725L41.238 23.6816L41.1229 23.7907L41.0078 23.8999L40.8924 24.0091L40.7773 24.2273L40.6621 24.3364L40.5469 24.5547V24.8821L40.8924 24.9912L41.0078 25.1004L41.3533 25.2095L41.6989 25.3187L42.0444 25.4277L42.7356 25.5369H43.5419L44.1179 25.4277L44.4636 25.3187L44.6939 25.2095L44.9243 25.1004L45.1547 24.9912L45.3851 24.8821L45.5002 24.7729L45.7306 24.6639L45.8458 24.5547L45.961 24.4456L46.0762 24.3364L46.1914 24.2273L46.3066 24.1181L46.4218 24.0091L46.537 23.8999L46.6522 23.7907L46.7674 23.5725L46.8825 23.4634L46.9977 23.2451L47.113 22.9177V22.8086L46.9977 22.6995L46.7674 22.5903L46.537 22.4811L45.961 22.3721H44.2331L43.5419 22.4811Z" fill="#FF3030"/>
<path fill-rule="evenodd" clip-rule="evenodd" d="M47.2315 18.116L46.8859 18.2251L46.6555 18.3343L46.4252 18.4434L46.3099 18.5524L46.0796 18.6616L45.9644 18.7708L45.734 18.8799L45.6188 18.9891L45.5036 19.0981L45.3885 19.2073L45.2732 19.3165L45.158 19.4256L45.0428 19.5347L44.9277 19.6438L44.8124 19.7529L44.6972 19.8621L44.582 20.0805L44.4669 20.2986L44.3516 20.5169V20.8442L44.582 20.9534L45.0428 21.0626L45.5036 21.1716L45.8492 21.2808H47.4619L47.6922 21.1716L47.9227 21.0626L48.1531 20.9534L48.2683 20.8442L48.4987 20.7352L48.6139 20.6261L48.729 20.5169L48.8442 20.4078L48.9595 20.2986L49.0746 20.1895L49.1897 20.0805L49.305 19.9713L49.4202 19.8621L49.5353 19.7529L49.6506 19.5347L49.7657 19.4256L49.8809 19.2073L49.9962 18.9891L50.1113 18.7708L50.2265 18.5524V18.116L49.305 18.0068H47.6922L47.2315 18.116Z" fill="#FF3030"/>
<path fill-rule="evenodd" clip-rule="evenodd" d="M52.874 6.54783L52.5285 6.6569L52.298 6.76607L52.0676 6.87524L51.9524 6.98435L51.722 7.09352L51.6068 7.20259L51.4917 7.31166L51.3765 7.42084L51.2613 7.53001L51.1461 7.63912L51.0309 7.74829L50.9157 7.85736L50.8006 7.96647L50.6854 8.07564L50.5701 8.29389L50.4549 8.40306L50.3398 8.62124L50.2245 8.83959L50.1094 9.05787L49.9942 9.38528L49.8789 9.71263V11.2405L49.9942 11.5678L50.1094 11.7861H50.4549L50.5701 11.677L50.6854 11.5678L50.8006 11.4586L50.9157 11.3496L51.0309 11.2405L51.1461 11.1314L51.3765 11.0222L51.4917 10.913L51.6068 10.8039L51.8373 10.6949L51.9524 10.5857L52.0676 10.4765L52.298 10.3674L52.4132 10.1492L52.5285 10.0401L52.6436 9.93088L52.7588 9.8217L52.874 9.60346L52.9892 9.38528L53.1044 9.27611L53.2195 9.05787L53.3347 8.73041L53.45 8.40306L53.5652 7.96647L53.6802 7.31166V6.43872H53.2195L52.874 6.54783Z" fill="#FF3030"/>
<path fill-rule="evenodd" clip-rule="evenodd" d="M41.1222 17.461L41.0071 17.5701L40.8917 17.6792L40.7766 17.7883L40.6614 17.8974L40.5462 18.0066L40.431 18.1157L40.3158 18.2249L40.2006 18.334L40.0855 18.4431L39.9702 18.6613L39.855 18.7705L39.7399 18.8796L39.6247 18.9888L39.5094 19.207L39.3943 19.3162L39.2791 19.5344L39.1639 19.7527L39.0487 19.971L38.9335 20.1892L38.8183 20.5166L38.7031 21.1714V22.2628L38.8183 22.9175H39.2791L39.5094 22.8084L39.7399 22.6993L39.9702 22.5901L40.2006 22.481L40.3158 22.3719L40.431 22.2628L40.5462 22.1536L40.6614 22.0445L40.7766 21.9354L40.8917 21.8262L41.0071 21.7171L41.1222 21.6079L41.2374 21.4987L41.3526 21.2806L41.4678 21.1714L41.5829 20.9531L41.6982 20.735L41.8134 20.5166L41.9286 20.0802L42.0437 19.7527V18.4431L41.9286 18.1157L41.8134 17.7883L41.6982 17.6792L41.5829 17.461L41.4678 17.3518H41.2374L41.1222 17.461Z" fill="#FF3030"/>
<path fill-rule="evenodd" clip-rule="evenodd" d="M199.976 40.0513L199.63 40.1604L199.4 40.2696L199.285 40.3787L199.054 40.4877L198.939 40.5969L198.824 40.7061L198.709 40.8152L198.594 40.9244L198.478 41.0335L198.363 41.1425L198.248 41.2517L198.133 41.47L198.018 41.5791L197.902 41.6883V42.0157L198.133 42.1248L198.363 42.2339L198.594 42.3431L198.824 42.4522L199.285 42.5614L199.745 42.6705H201.243L201.704 42.5614L202.049 42.4522L202.28 42.3431L202.51 42.2339L202.625 42.1248L202.856 42.0157L202.971 41.9065L203.086 41.7973L203.316 41.6883L203.432 41.5791L203.547 41.47L203.662 41.3609L203.777 41.2517V40.9244L203.662 40.8152L203.547 40.7061L203.316 40.5969L203.086 40.4877L202.856 40.3787L202.625 40.2696L202.395 40.1604L202.049 40.0513L201.473 39.9421H200.437L199.976 40.0513Z" fill="#FF3030"/>
<path fill-rule="evenodd" clip-rule="evenodd" d="M67.1576 4.47416L66.812 4.58323L66.5817 4.69241L66.3512 4.80158L66.2359 4.91076L66.1209 5.01976L66.0055 5.12893L65.8904 5.23811L65.7752 5.34721L65.66 5.45639L65.5448 5.56556L65.4297 5.7837L65.3144 5.89288L65.1992 6.11116V6.65675L65.4297 6.76592L65.66 6.8751L66.0055 6.9842H67.9639L68.4247 6.8751L68.8855 6.76592L69.2311 6.65675L69.4614 6.54768L69.8069 6.43858L69.9222 6.3294L70.1525 6.22033L70.383 6.11116L70.4981 6.00198L70.7285 5.89288L70.8437 5.7837L70.9589 5.67453L71.0741 5.56556V5.34721L70.9589 5.23811L70.8437 5.12893L70.6134 5.01976L70.4981 4.91076L70.2678 4.80158L70.0374 4.69241L69.8069 4.58323L69.3462 4.47416L68.7703 4.36499H67.5032L67.1576 4.47416Z" fill="#FF3030"/>
<path fill-rule="evenodd" clip-rule="evenodd" d="M57.9443 4.36521L57.5987 4.47438L57.2531 4.58345L57.0226 4.69263L56.9075 4.8018L56.677 4.91098L56.5619 5.01998L56.3315 5.12915L56.2162 5.23833L56.1011 5.34743L55.986 5.45661L55.8707 5.56578L55.7555 5.78392L55.6404 5.89309L55.5252 6.0022L55.41 6.22055L55.2948 6.43879L55.1796 6.76614L55.0644 7.0936L54.9492 7.85744V9.05794H55.2948L55.7555 8.94876L56.1011 8.83966L56.2162 8.73048L56.4467 8.62131L56.677 8.51224L56.7923 8.40313L56.9075 8.29396L57.0226 8.18489L57.1378 8.07572L57.3682 7.96654L57.4835 7.74837L57.5987 7.63919L57.7138 7.53009L57.829 7.42091L57.9443 7.20267L58.0594 7.0936L58.1746 6.87532L58.2898 6.65697L58.405 6.43879L58.5203 6.11137L58.6353 5.89309L58.7505 5.45661L58.8658 5.01998V4.2561H58.405L57.9443 4.36521Z" fill="#FF3030"/>
<path fill-rule="evenodd" clip-rule="evenodd" d="M220.712 43.8706L220.251 43.9798L219.906 44.0889L219.675 44.198L219.445 44.3072L219.33 44.4163L219.099 44.5255L218.984 44.6346L218.754 44.7437L218.639 44.8528L218.523 44.962V45.1802L218.754 45.2894L218.869 45.3985L218.984 45.5076L219.215 45.6168L219.445 45.7258L219.675 45.835L219.906 45.9442L220.251 46.0533L220.712 46.1624L221.634 46.2716H221.864L222.67 46.1624L223.016 46.0533L223.246 45.9442L223.477 45.835L223.707 45.7258L223.822 45.6168L223.938 45.5076L224.053 45.3985L224.168 45.2894L224.283 45.071L224.398 44.962V44.5255L224.168 44.4163L223.938 44.3072L223.707 44.198L223.477 44.0889L223.246 43.9798L222.786 43.8706L222.21 43.7615H221.288L220.712 43.8706Z" fill="#FF3030"/>
<path fill-rule="evenodd" clip-rule="evenodd" d="M207.695 46.5991L207.81 46.9266L207.926 47.1447L208.041 47.3631L208.156 47.4722L208.271 47.5813L208.386 47.6904L208.502 47.9087L208.617 48.0178L208.847 48.127L208.962 48.2361L209.078 48.3452L209.308 48.4544L209.423 48.5635L209.653 48.6727L209.884 48.7817L210.23 48.8909L210.575 49H213.109V48.7817L212.994 48.4544L212.879 48.2361L212.764 48.0178L212.649 47.9087L212.533 47.7995L212.418 47.6904L212.303 47.4722L212.188 47.3631L211.957 47.2539L211.842 47.1447L211.727 47.0356L211.497 46.9266L211.381 46.8174L211.151 46.7082L210.921 46.5991L210.69 46.49L210.46 46.3809L210.114 46.2718L209.884 46.1626L209.308 46.0534L208.847 45.9443H207.695V46.5991Z" fill="#FF3030"/>
<path fill-rule="evenodd" clip-rule="evenodd" d="M71.9976 6.76616L71.652 6.87533L71.4216 6.98444L71.3065 7.09361L71.0761 7.20268L70.9608 7.31175L70.8456 7.42093L70.7305 7.5301L70.6153 7.74838L70.5 7.96656V8.29397L70.7305 8.40315L71.0761 8.51225L71.3065 8.62132L71.7672 8.7305L72.1128 8.83967L72.5735 8.94878L73.4951 9.05795H73.6103L74.3014 8.94878L74.7622 8.83967L74.8774 8.7305L75.1078 8.62132L75.3381 8.51225L75.4535 8.40315L75.6838 8.29397L75.799 8.1849L75.9142 8.07573L76.0294 7.96656L76.1446 7.85745L76.2598 7.74838L76.375 7.63921V7.31175L76.1446 7.20268L75.9142 7.09361L75.5686 6.98444L75.223 6.87533L74.7622 6.76616L73.9559 6.65698H72.5735L71.9976 6.76616Z" fill="#FF3030"/>
<path fill-rule="evenodd" clip-rule="evenodd" d="M47.9211 10.1492L47.6907 10.2582L47.5755 10.3674L47.345 10.4765L47.23 10.5857L47.1148 10.6948L46.9995 10.8038L46.8843 10.913L46.7692 11.0222L46.654 11.1314L46.5388 11.2404L46.4236 11.3496L46.3084 11.5678L46.1932 11.7861L46.078 11.8952L45.9628 12.2227L45.8477 12.6591V14.187L45.9628 14.6235L46.078 14.9508L46.1932 15.2783H46.4236L46.654 15.1692L46.8843 15.06L47.1148 14.9508L47.23 14.8418L47.345 14.7326L47.5755 14.6235L47.6907 14.5144L47.8058 14.2961L47.9211 14.187L48.0363 14.0778L48.1515 13.8595L48.2667 13.6413L48.3819 13.314L48.4971 12.9865L48.6123 11.8952V10.04H48.2667L47.9211 10.1492Z" fill="#FF3030"/>
<path fill-rule="evenodd" clip-rule="evenodd" d="M226.241 40.1606L225.896 40.2698L225.55 40.3789L225.32 40.4879L225.089 40.5971L224.859 40.7063L224.628 40.8154L224.398 40.9246L224.283 41.0337L224.052 41.1427L223.937 41.2519L223.822 41.3611L223.707 41.4702L223.592 41.5793L223.476 41.6885L223.361 41.7975L223.246 41.9067V42.125L223.361 42.2341L223.476 42.3433L223.592 42.4524L223.707 42.5616L223.937 42.6707L224.168 42.7798L224.513 42.8889H225.78L226.241 42.7798L226.472 42.6707L226.702 42.5616L226.932 42.4524L227.048 42.3433L227.278 42.2341L227.393 42.125L227.508 42.0159L227.623 41.9067L227.739 41.7975L227.854 41.6885L227.969 41.5793L228.084 41.4702L228.199 41.3611L228.315 41.1427L228.43 41.0337L228.545 40.8154L228.66 40.5971L228.775 40.3789V40.0515H228.66H228.545H226.702L226.241 40.1606Z" fill="#FF3030"/>
<path fill-rule="evenodd" clip-rule="evenodd" d="M53.6806 11.677L53.3351 11.7862L53.2199 11.8953L52.9895 12.0045L52.8744 12.1136L52.6439 12.2227L52.5288 12.3318L52.4136 12.441L52.2984 12.5501L52.1832 12.6592L52.068 12.7683L51.9528 12.8775L51.8377 12.9866L51.7224 13.0958L51.6072 13.2049L51.4921 13.314L51.3769 13.4231L51.2617 13.5323V13.8596L51.4921 13.9688L51.7224 14.0779L51.9528 14.1871L52.2984 14.2962H53.796L54.2567 14.1871L54.6023 14.0779L54.8327 13.9688L55.063 13.8596L55.2935 13.7506L55.5239 13.6414L55.7542 13.5323L55.8694 13.4231L56.0998 13.314L56.2149 13.2049L56.3302 13.0958L56.4454 12.9866L56.6757 12.8775L56.791 12.7683L56.9062 12.6592V12.441L56.791 12.3318L56.5606 12.2227L56.3302 12.1136L56.2149 12.0045L55.8694 11.8953L55.6391 11.7862L55.2935 11.677L54.8327 11.5679H54.1415L53.6806 11.677Z" fill="#FF3030"/>
<path fill-rule="evenodd" clip-rule="evenodd" d="M62.4366 3.92844L62.2062 4.03762L61.9758 4.14679L61.7455 4.25586L61.6303 4.36496L61.5151 4.47414L61.2847 4.58321L61.1695 4.69238L61.0543 4.80156L60.9391 5.01973L60.8239 5.12891L60.7088 5.23808L60.5935 5.34719L60.4783 5.56554L60.3632 5.78368L60.2479 6.00196L60.1328 6.2203L60.0176 6.54765L59.9023 6.87507V7.09335H60.7088L61.7455 6.98418L62.2062 6.87507L62.5517 6.7659L62.7822 6.65672L63.0126 6.54765L63.1278 6.43855L63.3582 6.32938L63.4734 6.2203L63.5886 6.11113L63.7038 5.89285L63.819 5.78368L63.9341 5.6745L64.0494 5.45636L64.1645 5.34719L64.2797 5.23808L64.3949 5.01973L64.5101 4.91073L64.6253 4.69238L64.7405 4.47414L64.8556 4.25586V4.03762L64.6253 3.92844L64.2797 3.81934H62.7822L62.4366 3.92844Z" fill="#FF3030"/>
<path fill-rule="evenodd" clip-rule="evenodd" d="M230.155 35.1404L229.694 35.2496L229.349 35.3587L229.003 35.4678L228.773 35.5768L228.542 35.686L228.427 35.7952L228.312 35.9044L228.082 36.0135L227.966 36.1225L227.851 36.2317L227.736 36.3409L227.621 36.5592L227.506 36.6682L227.391 36.7773L227.275 36.9956L227.16 37.2139L227.045 37.4322L226.93 37.8687V38.3052H228.542L228.888 38.1961L229.234 38.087L229.464 37.9778L229.579 37.8687L229.81 37.7595L229.925 37.6504L230.155 37.5413L230.27 37.4322L230.386 37.323L230.501 37.2139L230.616 37.1048L230.731 36.9956L230.846 36.8865L230.961 36.7773L231.077 36.6682L231.192 36.5592L231.307 36.45L231.422 36.3409L231.538 36.1225L231.653 36.0135L231.768 35.7952L231.883 35.686L231.998 35.4678V35.0312H231.192L230.155 35.1404Z" fill="#FF3030"/>
<path fill-rule="evenodd" clip-rule="evenodd" d="M213.34 45.8352V46.1627L213.455 46.2719L213.57 46.4901L213.685 46.7083L213.801 46.8175L213.916 46.9266L214.031 47.1448L214.146 47.254L214.261 47.3632L214.377 47.4722L214.492 47.5814L214.722 47.6905L214.837 47.7996L215.068 47.9088L215.298 48.0179L215.528 48.127L215.874 48.2362H217.717L218.178 48.127L218.524 48.0179L218.754 47.9088L218.984 47.7996V47.5814L218.869 47.4722L218.754 47.3632L218.639 47.254L218.524 47.1448L218.408 47.0357L218.293 46.9266L218.178 46.8175L218.063 46.7083L217.948 46.5992L217.832 46.4901L217.717 46.3809L217.487 46.2719L217.256 46.1627L217.026 46.0535L216.796 45.9444L216.335 45.8352L215.644 45.7261H214.377L213.34 45.8352Z" fill="#FF3030"/>
<path fill-rule="evenodd" clip-rule="evenodd" d="M64.8555 8.62128V8.83963L64.9707 8.94873L65.0859 9.16698L65.2011 9.4945L65.3163 9.6035L65.4315 9.82174L65.5466 9.93092L65.6619 10.0401L65.7771 10.1493L65.8922 10.2583L66.0074 10.3674L66.1228 10.4765L66.2378 10.5857L66.4683 10.6949L66.6986 10.8039L67.0442 10.9131L67.2746 11.0222L67.6202 11.1314L67.9657 11.2405L68.1962 11.3497L68.5418 11.4587L68.8874 11.5678L69.2329 11.677L69.6937 11.7862L70.0392 11.8953H70.1544V11.5678L70.0392 11.2405L69.9241 10.9131L69.8088 10.6949L69.6937 10.4765L69.5785 10.2583L69.4633 10.0401L69.3481 9.93092L69.2329 9.82174L69.1177 9.6035L69.0026 9.4945L68.8874 9.38532L68.7721 9.27615L68.5418 9.16698L68.4265 9.05791L68.1962 8.94873L67.9657 8.83963L67.7354 8.73045L67.2746 8.62128L66.6986 8.51221H65.2011L64.8555 8.62128Z" fill="#FF3030"/>
<path fill-rule="evenodd" clip-rule="evenodd" d="M49.8782 14.7326L49.6479 14.8418L49.4175 14.9508L49.3023 15.06L49.187 15.1692L49.0719 15.2783L48.9568 15.3874L48.8415 15.4965L48.7263 15.6057L48.6112 15.7148L48.496 15.824L48.3807 15.9331L48.2656 16.1514L48.1504 16.2605L48.0351 16.4788L47.92 16.5879L47.8047 16.6971V16.9153L47.92 17.0245L48.1504 17.1335L48.3807 17.2426L48.6112 17.3518L48.9568 17.461H50.1086L50.4542 17.3518L50.6847 17.2426L50.9149 17.1335L51.1454 17.0245L51.2606 16.9153L51.3758 16.8061L51.6061 16.6971L51.7213 16.5879L51.8366 16.4788L51.9517 16.3697L52.0669 16.2605L52.1821 16.1514L52.2973 16.0422L52.4125 15.824L52.5277 15.7148L52.6428 15.6057L52.7581 15.3874L52.8733 15.2783V15.06L52.5277 14.9508L52.1821 14.8418L51.8366 14.7326L51.491 14.6235H50.1086L49.8782 14.7326Z" fill="#FF3030"/>
<path fill-rule="evenodd" clip-rule="evenodd" d="M60.82 8.40312L60.4744 8.51222L60.244 8.62129L60.1289 8.73047V8.94875L60.244 9.05792L60.3593 9.27617L60.4744 9.49452L60.5896 9.60352L60.7049 9.71269L60.82 9.93094L60.9352 10.0401L61.0504 10.1493L61.2808 10.2583L61.396 10.3675L61.6264 10.4766L61.8567 10.5857L62.3175 10.6949L63.3543 10.8039H65.3126V10.4766L65.1974 10.2583L65.0821 10.0401L64.967 9.82176L64.8518 9.60352L64.7366 9.49452L64.6214 9.27617L64.5062 9.16699L64.391 9.05792L64.2758 8.94875L64.1606 8.83964L63.9302 8.73047L63.8151 8.62129L63.5847 8.51222L63.1239 8.40312L62.4328 8.29395H61.396L60.82 8.40312Z" fill="#FF3030"/>
<path fill-rule="evenodd" clip-rule="evenodd" d="M44.2337 13.969L44.1185 14.0781L44.0033 14.2964L43.8881 14.5147L43.773 14.7329L43.6577 14.9512L43.5425 15.0603L43.4273 15.1695L43.3121 15.3877L43.197 15.4969L43.0818 15.606L42.9665 15.7151L42.8514 15.9334L42.7362 16.0425L42.621 16.2608L42.5058 16.5882L42.3906 16.9156V18.2252L42.5058 18.6617L42.621 18.9891L42.7362 19.3165L42.8514 19.4256H42.9665L43.0818 19.3165L43.197 19.2074L43.3121 19.0982L43.4273 18.9891L43.5425 18.8799L43.6577 18.7708L43.773 18.6617L43.8881 18.5525L44.0033 18.4434L44.1185 18.3343L44.2337 18.2252L44.3488 18.1161L44.4642 17.8977L44.5793 17.7886L44.6945 17.6795L44.8097 17.4613L44.9249 17.243L45.04 16.9156L45.1553 16.37V15.9334L45.04 15.1695L44.9249 14.8421L44.8097 14.6238L44.6945 14.2964L44.5793 14.0781L44.4642 13.8599H44.3488L44.2337 13.969Z" fill="#FF3030"/>
<path fill-rule="evenodd" clip-rule="evenodd" d="M202.625 45.5078L202.74 45.9443L202.855 46.2718L202.971 46.5991L203.086 46.8174L203.201 46.9265L203.316 47.1447L203.431 47.3631L203.547 47.4721L203.662 47.5813L203.777 47.6904L203.892 47.7995L204.007 47.9087L204.122 48.0178L204.238 48.1269L204.353 48.2361L204.583 48.3452L204.814 48.4544L205.159 48.5635L205.735 48.6726H206.311L207.117 48.5635V48.3452L207.002 48.1269L206.887 47.9087L206.772 47.6904L206.657 47.4721L206.542 47.3631L206.426 47.1447L206.311 47.0356L206.196 46.8174L206.081 46.7082L205.966 46.5991L205.85 46.3808L205.735 46.2718L205.62 46.1626L205.505 46.0534L205.39 45.9443L205.275 45.8351L205.159 45.726L204.929 45.617L204.814 45.5078L204.468 45.3986L204.007 45.2896H202.625V45.5078Z" fill="#FF3030"/>
<path fill-rule="evenodd" clip-rule="evenodd" d="M208.615 42.3431L208.269 42.4522L208.039 42.5613L207.923 42.6705L207.808 42.7796L207.693 42.8887L207.578 42.9979L207.463 43.1069L207.348 43.2161L207.232 43.3253L207.117 43.5435L207.002 43.6526L206.887 43.7617V44.0892L207.117 44.1982L207.348 44.3074L207.693 44.4165L208.384 44.5257H209.767L210.227 44.4165L210.458 44.3074L210.688 44.1982L210.803 44.0892L210.919 43.9801L211.034 43.8709L211.149 43.7617L211.264 43.6526L211.379 43.5435L211.494 43.4344L211.61 43.2161L211.725 43.1069L211.84 42.8887L211.955 42.6705L212.07 42.5613V42.2339H209.306L208.615 42.3431Z" fill="#FF3030"/>
<path fill-rule="evenodd" clip-rule="evenodd" d="M57.7121 9.60339L57.3665 9.71256L57.0209 9.82163L56.7906 9.9308L56.6753 10.04L56.445 10.1492L56.2145 10.2582L55.9842 10.3673L55.869 10.4764L55.6386 10.5856L55.5234 10.6948V10.913L55.6386 11.0221L55.869 11.1313L55.9842 11.2404L56.2145 11.3496L56.445 11.4586L56.6753 11.5677L57.0209 11.6769L57.4817 11.7861H58.2881L58.7488 11.6769L59.0944 11.5677L59.3249 11.4586L59.6705 11.3496L60.016 11.2404L60.3616 11.1313L60.7072 11.0221L60.9376 10.913V10.6948L60.8223 10.5856L60.7072 10.4764L60.592 10.3673L60.4767 10.2582L60.3616 10.1492L60.2464 10.04L60.1312 9.9308L59.9008 9.82163L59.6705 9.71256L59.44 9.60339L58.9793 9.49438H58.2881L57.7121 9.60339Z" fill="#FF3030"/>
<path fill-rule="evenodd" clip-rule="evenodd" d="M223.822 35.795L223.706 35.9041L223.476 36.0132L223.361 36.1223L223.245 36.2315L223.13 36.4498L223.015 36.5589L222.9 36.668L222.785 36.8863L222.67 36.9954L222.554 37.1045L222.439 37.3228L222.324 37.432L222.209 37.5411L222.094 37.6501L221.978 37.8685L221.863 37.9776L221.748 38.0868L221.633 38.3049L221.518 38.5233L221.402 38.8506V40.4875H221.633L221.978 40.3785L222.209 40.2693L222.439 40.1602L222.554 40.0511L222.785 39.9419L222.9 39.8328L223.015 39.7236L223.245 39.6145L223.361 39.5054L223.476 39.3963L223.591 39.2872L223.706 39.1781L223.822 39.0689L223.937 38.8506L224.052 38.7415L224.167 38.5233L224.282 38.1958V35.6858H223.937L223.822 35.795Z" fill="#FF3030"/>
<path fill-rule="evenodd" clip-rule="evenodd" d="M197.211 43.5434L197.326 43.7616L197.441 44.0891L197.557 44.3073L197.672 44.6348L197.787 44.8529L197.902 45.0712L198.017 45.2895L198.133 45.5078L198.248 45.617L198.363 45.726L198.478 45.8351L198.593 45.9443L198.824 46.0534L198.939 46.1626L199.169 46.2718L199.4 46.3808L199.63 46.4899L199.86 46.5991L200.206 46.7082L200.436 46.8174L200.667 46.9265L200.897 47.0356L201.012 47.1447H201.358V47.0356L201.243 45.8351L201.128 45.5078L201.012 45.2895L200.897 45.0712L200.782 44.9621L200.667 44.7438L200.552 44.6348L200.436 44.5256L200.321 44.4164L200.091 44.3073L199.976 44.1981L199.745 44.0891L199.63 43.98L199.4 43.8708L199.054 43.7616L198.824 43.6525L198.363 43.5434L198.017 43.4343L197.557 43.3252H197.211V43.5434Z" fill="#FF3030"/>
<path fill-rule="evenodd" clip-rule="evenodd" d="M203.664 41.6883L203.433 41.7973L203.203 41.9065L203.088 42.0156L202.972 42.1248L202.857 42.2339L202.742 42.343L202.627 42.4522L202.512 42.6705L202.396 42.7796L202.281 42.8887V43.1069L202.512 43.2161L202.627 43.3253L202.857 43.4343L203.088 43.5434L203.433 43.6526L203.779 43.7617H205.391L205.737 43.6526L205.968 43.5434L206.083 43.4343L206.313 43.3253L206.428 43.2161L206.543 43.1069L206.659 42.9978L206.774 42.8887L206.889 42.6705L207.004 42.5613L207.119 42.343L207.235 42.1248V41.9065L206.774 41.7973L206.198 41.6883L205.737 41.5791H203.894L203.664 41.6883Z" fill="#FF3030"/>
<path fill-rule="evenodd" clip-rule="evenodd" d="M226.472 31.3207L226.357 31.4299L226.242 31.5391L226.127 31.7573L226.011 31.8664L225.896 31.9755L225.781 32.1938L225.666 32.3029L225.551 32.5212L225.435 32.6303L225.32 32.8486L225.205 33.0669L225.09 33.176L224.975 33.3943L224.859 33.9399V34.5948L224.975 35.5768L225.09 36.0134L225.205 36.45H225.551L225.666 36.2317L225.781 36.1225L225.896 36.0134L226.011 35.7952L226.127 35.686L226.242 35.5768L226.357 35.3587L226.472 35.2496L226.587 35.0312L226.703 34.813L226.818 34.5948L226.933 34.3765L227.048 34.1582L227.163 33.8308L227.279 33.2852V32.3029L227.163 31.7573L227.048 31.4299L226.933 31.1025H226.587L226.472 31.3207Z" fill="#FF3030"/>
<path fill-rule="evenodd" clip-rule="evenodd" d="M219.903 39.6147L219.673 39.7239L219.442 39.833L219.327 39.9421L219.097 40.0513L218.866 40.1604L218.751 40.2696L218.521 40.3787L218.406 40.4877L218.175 40.5969L218.06 40.7061L217.945 40.8152L217.83 40.9244L217.715 41.0335L217.599 41.1425L217.484 41.3609L217.369 41.47L217.254 41.6883L217.138 42.0157L217.023 42.9979V43.4344H217.369L217.83 43.3253L218.175 43.2161L218.406 43.1069L218.636 42.9979L218.866 42.8887L218.982 42.7796L219.212 42.6705L219.327 42.5614L219.442 42.4522L219.558 42.3431L219.673 42.2339L219.903 42.1248L220.018 41.9065L220.134 41.7973L220.249 41.6883L220.364 41.47L220.479 41.0335V39.5056H220.134L219.903 39.6147Z" fill="#FF3030"/>
<path fill-rule="evenodd" clip-rule="evenodd" d="M69.9219 9.71256L70.037 9.9308L70.1522 10.2582L70.2675 10.4764L70.3826 10.6948L70.4977 10.913L70.613 11.0221L70.7282 11.2404L70.8433 11.4586L70.9585 11.5677L71.0738 11.6769L71.1889 11.7861L71.3042 12.0043L71.5345 12.1134L71.6497 12.2226L71.8801 12.3317L72.1105 12.4408L72.4562 12.5499L72.6865 12.659L73.032 12.7682L73.3776 12.8774L73.7232 12.9864L74.184 13.0956H74.5296V12.8774L74.4144 12.5499L74.2992 12.2226L74.184 12.0043L74.0688 11.7861L73.9536 11.5677L73.8384 11.4586L73.7232 11.3496L73.608 11.1313L73.4928 11.0221L73.3776 10.913L73.2624 10.8038L73.032 10.6948L72.9169 10.5856L72.8017 10.4764L72.5713 10.3673L72.4562 10.2582L72.2257 10.1492L71.9954 10.04L71.6497 9.9308L71.4193 9.82163L71.0738 9.71256L70.7282 9.60339L70.2675 9.49438H69.9219V9.71256Z" fill="#FF3030"/>
<path fill-rule="evenodd" clip-rule="evenodd" d="M215.641 41.9065L215.065 42.0157L214.605 42.1249L214.144 42.234L213.683 42.3431L213.568 42.4522L213.453 42.5614L213.222 42.6706L213.107 42.7797L212.992 42.8888L212.877 42.9979L212.761 43.2162L212.646 43.3254L212.531 43.4344L212.416 43.6527L212.301 43.7618L212.186 43.9801L212.07 44.1983V44.4166H213.338L214.144 44.3075L214.605 44.1983L214.95 44.0892L215.181 43.9801L215.411 43.8709L215.526 43.7618L215.756 43.6527L215.872 43.5435L215.987 43.4344L216.102 43.2162L216.217 43.107L216.333 42.8888L216.448 42.5614L216.563 42.234V41.7974H216.102L215.641 41.9065Z" fill="#FF3030"/>
</svg>
